<svg width="100" height="100" viewBox="0 0 100 100" fill="none" xmlns="http://www.w3.org/2000/svg">
<path d="M33.9743 41.9872L30.3745 40.1869C30.1301 40.0642 29.8605 40 29.5871 39.9994H29.2746C28.5653 40.0084 27.9292 40.4386 27.6574 41.0938C27.3857 41.7494 27.5297 42.5034 28.0246 43.0118L34.4995 49.524V49.5246C35.0625 50.0944 35.1708 50.9727 34.7618 51.6619C34.4911 52.1535 33.9956 52.4811 33.437 52.5386C32.8784 52.596 32.3276 52.3762 31.9621 51.9493L27.1618 47.149V47.1495C25.7495 45.7455 24.6797 44.0345 24.0368 42.1495L20.2868 31.0368C20.0357 30.4174 19.3929 30.0497 18.731 30.1479C18.0697 30.2455 17.5608 30.7835 17.4994 31.4492C17.4972 37.1406 17.9654 42.8225 18.8995 48.4364L19.2243 50.3989C19.7321 53.4341 20.8783 56.3269 22.587 58.8861L28.4743 67.7236C29.4514 69.1952 29.7606 71.0116 29.3242 72.7236C29.2081 73.2783 29.347 73.8565 29.7031 74.2974C30.0597 74.7382 30.5948 74.996 31.1618 74.9988H38.4246C40.1679 74.9988 41.8404 74.3063 43.0736 73.0731C44.3069 71.8398 44.9994 70.1674 44.9994 68.4241V59.9112C44.9982 56.7488 44.2756 53.6278 42.8866 50.7862C40.9614 46.9548 37.8298 43.8627 33.9742 41.9865L33.9743 41.9872Z" fill="black"/>
<path d="M81.05 30.0001C80.4267 29.9995 79.8737 30.3974 79.675 30.9878L75.925 42.1005V42.0999C75.2816 43.9849 74.2125 45.6959 72.8 47.0999L67.9997 51.9002C67.6342 52.3266 67.0829 52.5464 66.5243 52.4895C65.9657 52.432 65.4707 52.1045 65.1995 51.6128C64.7911 50.9231 64.8988 50.0453 65.4624 49.475L71.9372 42.9627C72.4316 42.4543 72.5762 41.6999 72.3044 41.0447C72.0327 40.3896 71.3965 39.9588 70.6873 39.9498H70.3748C70.1013 39.9504 69.8318 40.0146 69.5874 40.1373L65.9747 41.9376C62.127 43.8015 58.9964 46.875 57.0622 50.6876C55.6761 53.5638 54.9701 56.72 54.9997 59.9125V68.4253C54.9997 70.1686 55.6922 71.841 56.9254 73.0743C58.1586 74.3076 59.8311 75 61.5744 75H68.8372C69.4154 74.9978 69.9611 74.73 70.3165 74.274C70.6726 73.8181 70.7998 73.2244 70.662 72.6625C70.2261 70.9505 70.5347 69.134 71.5118 67.6625L77.3991 58.8249H77.3997C79.1084 56.2658 80.254 53.3729 80.7618 50.3378L81.0866 48.3752H81.0872C82.0219 42.782 82.494 37.1213 82.4995 31.4495C82.4995 30.6487 81.8505 29.9998 81.0498 29.9998L81.05 30.0001Z" fill="black"/>
<path d="M60.6372 31.8C60.7784 28.8926 59.722 26.0544 57.7142 23.9467C55.7069 21.8396 52.9229 20.6464 50.0122 20.6464C47.1015 20.6464 44.318 21.8395 42.3102 23.9467C40.3029 26.0544 39.2466 28.8926 39.3872 31.8C39.3872 37.675 44.1495 40.1627 50.0245 40.1627C55.9 40.1622 60.6372 37.675 60.6372 31.8V31.8Z" fill="black"/>
<path d="M38.2758 12.6624C35.8505 12.6624 33.8756 15.7874 33.8756 18.225C33.8756 20.6626 35.8505 21.4627 38.2758 21.4627C40.701 21.4627 42.6759 20.6502 42.6759 18.225C42.6759 15.8003 40.7005 12.6624 38.2758 12.6624Z" fill="black"/>
<path d="M57.3372 18.2243C57.3372 20.6495 59.312 21.462 61.7373 21.462C64.1626 21.462 66.1374 20.6495 66.1374 18.2243C66.1374 15.799 64.1626 12.6617 61.7373 12.6617C59.312 12.6617 57.3372 15.7867 57.3372 18.2243V18.2243Z" fill="black"/>
<path d="M45.1 11.5747C45.1 14.4374 47.2997 15.3247 50.0001 15.3247C52.6998 15.3247 54.9003 14.3749 54.9003 11.5747C54.9003 8.775 52.7128 5 50.0001 5C47.2874 5 45.1 8.75 45.1 11.5747Z" fill="black"/>
</svg>
