<svg width="100" height="100" viewBox="0 0 100 100" fill="none" xmlns="http://www.w3.org/2000/svg">
<path d="M76.6371 12.3499L75.3871 17.1746V17.1752C75.0925 18.2979 74.2939 19.2214 73.2247 19.6752H29.2247C28.1555 19.2215 27.357 18.2979 27.0622 17.1752L25.8122 12.3504V12.3499C25.5209 11.1903 25.7776 9.96031 26.5092 9.01445C27.2408 8.06802 28.3664 7.51002 29.5622 7.49988H72.8494C74.0452 7.50992 75.1708 8.06796 75.9024 9.01445C76.634 9.96032 76.8907 11.1902 76.5994 12.3499H76.6371ZM73.237 22.1874L74.9998 68.0746C75.0065 69.9049 74.2861 71.6627 72.9965 72.9613C71.7075 74.2599 69.9547 74.9932 68.1248 74.9999H34.3748C32.5522 74.9965 30.8057 74.2711 29.5171 72.9826C28.2286 71.6941 27.5031 69.9475 27.4998 68.1249L29.2621 22.1877L73.237 22.1874ZM68.7498 32.0999C67.2872 27.7126 60.5874 26.3247 60.3124 26.2752L59.9999 26.2501C52.4999 26.2501 46.5502 28.6128 42.2627 33.2623C33.8503 42.4002 35.0005 56.9881 35.0005 57.5995C35.0373 58.0336 35.2979 58.4176 35.688 58.6123C35.8621 58.701 36.0546 58.7485 36.2505 58.7496C36.4843 58.7501 36.7142 58.6854 36.9128 58.5621C47.0881 52.1994 50.9631 44.6247 51.1126 44.3121H51.1131C51.2922 44.0141 51.3391 43.6553 51.2431 43.3216C51.1466 42.9879 50.9161 42.7088 50.6059 42.552C50.2956 42.3952 49.9346 42.3746 49.6087 42.4951C49.2828 42.6157 49.0216 42.8662 48.8877 43.1871C46.0495 48.0047 42.1561 52.1157 37.5004 55.2122C37.5004 50.9371 38.3129 41.3121 44.1628 34.9622C47.9128 30.8624 53.2375 28.7748 59.9385 28.7122C61.986 29.1358 63.8917 30.0733 65.476 31.4371C64.2204 31.7435 63.077 32.398 62.1762 33.3244C60.251 35.3121 59.5512 38.4371 60.0764 42.6118C61.0139 50.1118 54.0261 52.8495 51.7388 53.5492V53.5498C51.6785 52.5398 51.8945 51.5331 52.3638 50.6368C52.6785 50.0643 52.4983 49.3455 51.9514 48.9884C51.404 48.6312 50.6735 48.7557 50.2761 49.2746C50.1511 49.4499 47.376 53.7624 51.5261 60.5994C51.7231 60.9643 52.0881 61.2082 52.501 61.2495C52.7254 61.2495 52.9458 61.1892 53.1383 61.0742C53.732 60.7221 53.9279 59.9559 53.5758 59.3622C52.9447 58.3343 52.4491 57.2294 52.1009 56.0742C56.4508 54.899 63.5384 50.774 62.4882 42.3242C62.063 38.937 62.4882 36.5117 63.8883 35.0865V35.0871C64.8258 34.1853 66.0886 33.7026 67.3883 33.7495C67.803 33.7712 68.2008 33.5865 68.4514 33.2562C68.702 32.9253 68.7717 32.4922 68.6383 32.0994L68.7498 32.0999Z" fill="#149DC3"/>
</svg>
