<svg width="386" height="69" viewBox="0 0 386 69" fill="none" xmlns="http://www.w3.org/2000/svg">
<rect width="24" height="24" rx="4" fill="#FFCBBD"/>
<path d="M10.5 14.085L9.12252 12.7075C8.73137 12.3164 8.09754 12.3153 7.70502 12.705V12.705L9.65149 14.6515C10.1201 15.1201 10.8799 15.1201 11.3485 14.6515L16.3433 9.65677C16.4298 9.57021 16.4298 9.42988 16.3433 9.34332V9.34332C16.0404 9.04047 15.5495 9.04036 15.2465 9.34306L10.5 14.085Z" fill="white"/>
<path d="M37.472 20.126C36.632 20.126 35.876 19.982 35.204 19.694C34.532 19.394 34.004 18.974 33.62 18.434C33.236 17.894 33.044 17.264 33.044 16.544H35.24C35.288 17.084 35.498 17.528 35.87 17.876C36.254 18.224 36.788 18.398 37.472 18.398C38.18 18.398 38.732 18.23 39.128 17.894C39.524 17.546 39.722 17.102 39.722 16.562C39.722 16.142 39.596 15.8 39.344 15.536C39.104 15.272 38.798 15.068 38.426 14.924C38.066 14.78 37.562 14.624 36.914 14.456C36.098 14.24 35.432 14.024 34.916 13.808C34.412 13.58 33.98 13.232 33.62 12.764C33.26 12.296 33.08 11.672 33.08 10.892C33.08 10.172 33.26 9.542 33.62 9.002C33.98 8.462 34.484 8.048 35.132 7.76C35.78 7.472 36.53 7.328 37.382 7.328C38.594 7.328 39.584 7.634 40.352 8.246C41.132 8.846 41.564 9.674 41.648 10.73H39.38C39.344 10.274 39.128 9.884 38.732 9.56C38.336 9.236 37.814 9.074 37.166 9.074C36.578 9.074 36.098 9.224 35.726 9.524C35.354 9.824 35.168 10.256 35.168 10.82C35.168 11.204 35.282 11.522 35.51 11.774C35.75 12.014 36.05 12.206 36.41 12.35C36.77 12.494 37.262 12.65 37.886 12.818C38.714 13.046 39.386 13.274 39.902 13.502C40.43 13.73 40.874 14.084 41.234 14.564C41.606 15.032 41.792 15.662 41.792 16.454C41.792 17.09 41.618 17.69 41.27 18.254C40.934 18.818 40.436 19.274 39.776 19.622C39.128 19.958 38.36 20.126 37.472 20.126ZM48.1373 15.05L52.7093 20H49.9373L46.2653 15.734V20H44.2133V6.68H46.2653V14.42L49.8653 10.082H52.7093L48.1373 15.05ZM55.2241 8.768C54.8521 8.768 54.5401 8.642 54.2881 8.39C54.0361 8.138 53.9101 7.826 53.9101 7.454C53.9101 7.082 54.0361 6.77 54.2881 6.518C54.5401 6.266 54.8521 6.14 55.2241 6.14C55.5841 6.14 55.8901 6.266 56.1421 6.518C56.3941 6.77 56.5201 7.082 56.5201 7.454C56.5201 7.826 56.3941 8.138 56.1421 8.39C55.8901 8.642 55.5841 8.768 55.2241 8.768ZM56.2321 10.082V20H54.1801V10.082H56.2321ZM60.9782 6.68V20H58.9262V6.68H60.9782ZM65.7243 6.68V20H63.6723V6.68H65.7243ZM77.5084 14.798C77.5084 15.17 77.4844 15.506 77.4364 15.806H69.8584C69.9184 16.598 70.2124 17.234 70.7404 17.714C71.2684 18.194 71.9164 18.434 72.6844 18.434C73.7884 18.434 74.5684 17.972 75.0244 17.048H77.2384C76.9384 17.96 76.3924 18.71 75.6004 19.298C74.8204 19.874 73.8484 20.162 72.6844 20.162C71.7364 20.162 70.8844 19.952 70.1284 19.532C69.3844 19.1 68.7964 18.5 68.3644 17.732C67.9444 16.952 67.7344 16.052 67.7344 15.032C67.7344 14.012 67.9384 13.118 68.3464 12.35C68.7664 11.57 69.3484 10.97 70.0924 10.55C70.8484 10.13 71.7124 9.92 72.6844 9.92C73.6204 9.92 74.4544 10.124 75.1864 10.532C75.9184 10.94 76.4884 11.516 76.8964 12.26C77.3044 12.992 77.5084 13.838 77.5084 14.798ZM75.3664 14.15C75.3544 13.394 75.0844 12.788 74.5564 12.332C74.0284 11.876 73.3744 11.648 72.5944 11.648C71.8864 11.648 71.2804 11.876 70.7764 12.332C70.2724 12.776 69.9724 13.382 69.8764 14.15H75.3664ZM78.8437 14.996C78.8437 14 79.0477 13.118 79.4557 12.35C79.8757 11.582 80.4397 10.988 81.1477 10.568C81.8677 10.136 82.6657 9.92 83.5417 9.92C84.1897 9.92 84.8257 10.064 85.4497 10.352C86.0857 10.628 86.5897 11 86.9617 11.468V6.68H89.0317V20H86.9617V18.506C86.6257 18.986 86.1577 19.382 85.5577 19.694C84.9697 20.006 84.2917 20.162 83.5237 20.162C82.6597 20.162 81.8677 19.946 81.1477 19.514C80.4397 19.07 79.8757 18.458 79.4557 17.678C79.0477 16.886 78.8437 15.992 78.8437 14.996ZM86.9617 15.032C86.9617 14.348 86.8177 13.754 86.5297 13.25C86.2537 12.746 85.8877 12.362 85.4317 12.098C84.9757 11.834 84.4837 11.702 83.9557 11.702C83.4277 11.702 82.9357 11.834 82.4797 12.098C82.0237 12.35 81.6517 12.728 81.3637 13.232C81.0877 13.724 80.9497 14.312 80.9497 14.996C80.9497 15.68 81.0877 16.28 81.3637 16.796C81.6517 17.312 82.0237 17.708 82.4797 17.984C82.9477 18.248 83.4397 18.38 83.9557 18.38C84.4837 18.38 84.9757 18.248 85.4317 17.984C85.8877 17.72 86.2537 17.336 86.5297 16.832C86.8177 16.316 86.9617 15.716 86.9617 15.032ZM98.4547 11.54C98.8027 11.084 99.2767 10.7 99.8767 10.388C100.477 10.076 101.155 9.92 101.911 9.92C102.775 9.92 103.561 10.136 104.269 10.568C104.989 10.988 105.553 11.582 105.961 12.35C106.369 13.118 106.573 14 106.573 14.996C106.573 15.992 106.369 16.886 105.961 17.678C105.553 18.458 104.989 19.07 104.269 19.514C103.561 19.946 102.775 20.162 101.911 20.162C101.155 20.162 100.483 20.012 99.8947 19.712C99.3067 19.4 98.8267 19.016 98.4547 18.56V24.716H96.4027V10.082H98.4547V11.54ZM104.485 14.996C104.485 14.312 104.341 13.724 104.053 13.232C103.777 12.728 103.405 12.35 102.937 12.098C102.481 11.834 101.989 11.702 101.461 11.702C100.945 11.702 100.453 11.834 99.9847 12.098C99.5287 12.362 99.1567 12.746 98.8687 13.25C98.5927 13.754 98.4547 14.348 98.4547 15.032C98.4547 15.716 98.5927 16.316 98.8687 16.832C99.1567 17.336 99.5287 17.72 99.9847 17.984C100.453 18.248 100.945 18.38 101.461 18.38C101.989 18.38 102.481 18.248 102.937 17.984C103.405 17.708 103.777 17.312 104.053 16.796C104.341 16.28 104.485 15.68 104.485 14.996ZM117.692 14.798C117.692 15.17 117.668 15.506 117.62 15.806H110.042C110.102 16.598 110.396 17.234 110.924 17.714C111.452 18.194 112.1 18.434 112.868 18.434C113.972 18.434 114.752 17.972 115.208 17.048H117.422C117.122 17.96 116.576 18.71 115.784 19.298C115.004 19.874 114.032 20.162 112.868 20.162C111.92 20.162 111.068 19.952 110.312 19.532C109.568 19.1 108.98 18.5 108.548 17.732C108.128 16.952 107.918 16.052 107.918 15.032C107.918 14.012 108.122 13.118 108.53 12.35C108.95 11.57 109.532 10.97 110.276 10.55C111.032 10.13 111.896 9.92 112.868 9.92C113.804 9.92 114.638 10.124 115.37 10.532C116.102 10.94 116.672 11.516 117.08 12.26C117.488 12.992 117.692 13.838 117.692 14.798ZM115.55 14.15C115.538 13.394 115.268 12.788 114.74 12.332C114.212 11.876 113.558 11.648 112.778 11.648C112.07 11.648 111.464 11.876 110.96 12.332C110.456 12.776 110.156 13.382 110.06 14.15H115.55ZM121.763 11.522C122.063 11.018 122.459 10.628 122.951 10.352C123.455 10.064 124.049 9.92 124.733 9.92V12.044H124.211C123.407 12.044 122.795 12.248 122.375 12.656C121.967 13.064 121.763 13.772 121.763 14.78V20H119.711V10.082H121.763V11.522ZM130.22 20.162C129.44 20.162 128.738 20.024 128.114 19.748C127.502 19.46 127.016 19.076 126.656 18.596C126.296 18.104 126.104 17.558 126.08 16.958H128.204C128.24 17.378 128.438 17.732 128.798 18.02C129.17 18.296 129.632 18.434 130.184 18.434C130.76 18.434 131.204 18.326 131.516 18.11C131.84 17.882 132.002 17.594 132.002 17.246C132.002 16.874 131.822 16.598 131.462 16.418C131.114 16.238 130.556 16.04 129.788 15.824C129.044 15.62 128.438 15.422 127.97 15.23C127.502 15.038 127.094 14.744 126.746 14.348C126.41 13.952 126.242 13.43 126.242 12.782C126.242 12.254 126.398 11.774 126.71 11.342C127.022 10.898 127.466 10.55 128.042 10.298C128.63 10.046 129.302 9.92 130.058 9.92C131.186 9.92 132.092 10.208 132.776 10.784C133.472 11.348 133.844 12.122 133.892 13.106H131.84C131.804 12.662 131.624 12.308 131.3 12.044C130.976 11.78 130.538 11.648 129.986 11.648C129.446 11.648 129.032 11.75 128.744 11.954C128.456 12.158 128.312 12.428 128.312 12.764C128.312 13.028 128.408 13.25 128.6 13.43C128.792 13.61 129.026 13.754 129.302 13.862C129.578 13.958 129.986 14.084 130.526 14.24C131.246 14.432 131.834 14.63 132.29 14.834C132.758 15.026 133.16 15.314 133.496 15.698C133.832 16.082 134.006 16.592 134.018 17.228C134.018 17.792 133.862 18.296 133.55 18.74C133.238 19.184 132.794 19.532 132.218 19.784C131.654 20.036 130.988 20.162 130.22 20.162ZM140.537 20.162C139.601 20.162 138.755 19.952 137.999 19.532C137.243 19.1 136.649 18.5 136.217 17.732C135.785 16.952 135.569 16.052 135.569 15.032C135.569 14.024 135.791 13.13 136.235 12.35C136.679 11.57 137.285 10.97 138.053 10.55C138.821 10.13 139.679 9.92 140.627 9.92C141.575 9.92 142.433 10.13 143.201 10.55C143.969 10.97 144.575 11.57 145.019 12.35C145.463 13.13 145.685 14.024 145.685 15.032C145.685 16.04 145.457 16.934 145.001 17.714C144.545 18.494 143.921 19.1 143.129 19.532C142.349 19.952 141.485 20.162 140.537 20.162ZM140.537 18.38C141.065 18.38 141.557 18.254 142.013 18.002C142.481 17.75 142.859 17.372 143.147 16.868C143.435 16.364 143.579 15.752 143.579 15.032C143.579 14.312 143.441 13.706 143.165 13.214C142.889 12.71 142.523 12.332 142.067 12.08C141.611 11.828 141.119 11.702 140.591 11.702C140.063 11.702 139.571 11.828 139.115 12.08C138.671 12.332 138.317 12.71 138.053 13.214C137.789 13.706 137.657 14.312 137.657 15.032C137.657 16.1 137.927 16.928 138.467 17.516C139.019 18.092 139.709 18.38 140.537 18.38ZM152.717 9.92C153.497 9.92 154.193 10.082 154.805 10.406C155.429 10.73 155.915 11.21 156.263 11.846C156.611 12.482 156.785 13.25 156.785 14.15V20H154.751V14.456C154.751 13.568 154.529 12.89 154.085 12.422C153.641 11.942 153.035 11.702 152.267 11.702C151.499 11.702 150.887 11.942 150.431 12.422C149.987 12.89 149.765 13.568 149.765 14.456V20H147.713V10.082H149.765V11.216C150.101 10.808 150.527 10.49 151.043 10.262C151.571 10.034 152.129 9.92 152.717 9.92ZM168.493 14.798C168.493 15.17 168.469 15.506 168.421 15.806H160.843C160.903 16.598 161.197 17.234 161.725 17.714C162.253 18.194 162.901 18.434 163.669 18.434C164.773 18.434 165.553 17.972 166.009 17.048H168.223C167.923 17.96 167.377 18.71 166.585 19.298C165.805 19.874 164.833 20.162 163.669 20.162C162.721 20.162 161.869 19.952 161.113 19.532C160.369 19.1 159.781 18.5 159.349 17.732C158.929 16.952 158.719 16.052 158.719 15.032C158.719 14.012 158.923 13.118 159.331 12.35C159.751 11.57 160.333 10.97 161.077 10.55C161.833 10.13 162.697 9.92 163.669 9.92C164.605 9.92 165.439 10.124 166.171 10.532C166.903 10.94 167.473 11.516 167.881 12.26C168.289 12.992 168.493 13.838 168.493 14.798ZM166.351 14.15C166.339 13.394 166.069 12.788 165.541 12.332C165.013 11.876 164.359 11.648 163.579 11.648C162.871 11.648 162.265 11.876 161.761 12.332C161.257 12.776 160.957 13.382 160.861 14.15H166.351ZM172.564 6.68V20H170.512V6.68H172.564Z" fill="black"/>
<rect y="44" width="24" height="24" rx="4" fill="#FFCBBD"/>
<path d="M10.5 58.085L9.12252 56.7075C8.73137 56.3164 8.09754 56.3153 7.70502 56.705V56.705L9.65149 58.6515C10.1201 59.1201 10.8799 59.1201 11.3485 58.6515L16.3433 53.6568C16.4298 53.5702 16.4298 53.4299 16.3433 53.3433V53.3433C16.0404 53.0405 15.5495 53.0404 15.2465 53.3431L10.5 58.085Z" fill="white"/>
<path d="M40.046 57.574C40.718 57.694 41.288 58.048 41.756 58.636C42.224 59.224 42.458 59.89 42.458 60.634C42.458 61.27 42.29 61.846 41.954 62.362C41.63 62.866 41.156 63.268 40.532 63.568C39.908 63.856 39.182 64 38.354 64H33.35V51.49H38.12C38.972 51.49 39.704 51.634 40.316 51.922C40.928 52.21 41.39 52.6 41.702 53.092C42.014 53.572 42.17 54.112 42.17 54.712C42.17 55.432 41.978 56.032 41.594 56.512C41.21 56.992 40.694 57.346 40.046 57.574ZM35.402 56.746H37.94C38.612 56.746 39.134 56.596 39.506 56.296C39.89 55.984 40.082 55.54 40.082 54.964C40.082 54.4 39.89 53.962 39.506 53.65C39.134 53.326 38.612 53.164 37.94 53.164H35.402V56.746ZM38.174 62.326C38.87 62.326 39.416 62.158 39.812 61.822C40.208 61.486 40.406 61.018 40.406 60.418C40.406 59.806 40.196 59.32 39.776 58.96C39.356 58.6 38.798 58.42 38.102 58.42H35.402V62.326H38.174ZM53.7779 58.798C53.7779 59.17 53.7539 59.506 53.7059 59.806H46.1279C46.1879 60.598 46.4819 61.234 47.0099 61.714C47.5379 62.194 48.1859 62.434 48.9539 62.434C50.0579 62.434 50.8379 61.972 51.2939 61.048H53.5079C53.2079 61.96 52.6619 62.71 51.8699 63.298C51.0899 63.874 50.1179 64.162 48.9539 64.162C48.0059 64.162 47.1539 63.952 46.3979 63.532C45.6539 63.1 45.0659 62.5 44.6339 61.732C44.2139 60.952 44.0039 60.052 44.0039 59.032C44.0039 58.012 44.2079 57.118 44.6159 56.35C45.0359 55.57 45.6179 54.97 46.3619 54.55C47.1179 54.13 47.9819 53.92 48.9539 53.92C49.8899 53.92 50.7239 54.124 51.4559 54.532C52.1879 54.94 52.7579 55.516 53.1659 56.26C53.5739 56.992 53.7779 57.838 53.7779 58.798ZM51.6359 58.15C51.6239 57.394 51.3539 56.788 50.8259 56.332C50.2979 55.876 49.6439 55.648 48.8639 55.648C48.1559 55.648 47.5499 55.876 47.0459 56.332C46.5419 56.776 46.2419 57.382 46.1459 58.15H51.6359ZM59.3973 64.162C58.6173 64.162 57.9153 64.024 57.2913 63.748C56.6793 63.46 56.1933 63.076 55.8333 62.596C55.4733 62.104 55.2813 61.558 55.2573 60.958H57.3813C57.4173 61.378 57.6153 61.732 57.9753 62.02C58.3473 62.296 58.8093 62.434 59.3613 62.434C59.9373 62.434 60.3813 62.326 60.6933 62.11C61.0173 61.882 61.1793 61.594 61.1793 61.246C61.1793 60.874 60.9993 60.598 60.6393 60.418C60.2913 60.238 59.7333 60.04 58.9653 59.824C58.2213 59.62 57.6153 59.422 57.1473 59.23C56.6793 59.038 56.2713 58.744 55.9233 58.348C55.5873 57.952 55.4193 57.43 55.4193 56.782C55.4193 56.254 55.5753 55.774 55.8873 55.342C56.1993 54.898 56.6433 54.55 57.2193 54.298C57.8073 54.046 58.4793 53.92 59.2353 53.92C60.3633 53.92 61.2693 54.208 61.9533 54.784C62.6493 55.348 63.0213 56.122 63.0693 57.106H61.0173C60.9813 56.662 60.8013 56.308 60.4773 56.044C60.1533 55.78 59.7153 55.648 59.1633 55.648C58.6233 55.648 58.2093 55.75 57.9213 55.954C57.6333 56.158 57.4893 56.428 57.4893 56.764C57.4893 57.028 57.5853 57.25 57.7773 57.43C57.9693 57.61 58.2033 57.754 58.4793 57.862C58.7553 57.958 59.1633 58.084 59.7033 58.24C60.4233 58.432 61.0113 58.63 61.4673 58.834C61.9353 59.026 62.3373 59.314 62.6733 59.698C63.0093 60.082 63.1833 60.592 63.1953 61.228C63.1953 61.792 63.0393 62.296 62.7273 62.74C62.4153 63.184 61.9713 63.532 61.3953 63.784C60.8313 64.036 60.1653 64.162 59.3973 64.162ZM67.8065 55.756V61.246C67.8065 61.618 67.8905 61.888 68.0585 62.056C68.2385 62.212 68.5385 62.29 68.9585 62.29H70.2185V64H68.5985C67.6745 64 66.9665 63.784 66.4745 63.352C65.9825 62.92 65.7365 62.218 65.7365 61.246V55.756H64.5665V54.082H65.7365V51.616H67.8065V54.082H70.2185V55.756H67.8065ZM87.5675 51.49L82.8695 64H80.4935L75.7775 51.49H77.9735L81.6815 61.894L85.4075 51.49H87.5675ZM98.3736 58.798C98.3736 59.17 98.3496 59.506 98.3016 59.806H90.7236C90.7836 60.598 91.0776 61.234 91.6056 61.714C92.1336 62.194 92.7816 62.434 93.5496 62.434C94.6536 62.434 95.4336 61.972 95.8896 61.048H98.1036C97.8036 61.96 97.2576 62.71 96.4656 63.298C95.6856 63.874 94.7136 64.162 93.5496 64.162C92.6016 64.162 91.7496 63.952 90.9936 63.532C90.2496 63.1 89.6616 62.5 89.2296 61.732C88.8096 60.952 88.5996 60.052 88.5996 59.032C88.5996 58.012 88.8036 57.118 89.2116 56.35C89.6316 55.57 90.2136 54.97 90.9576 54.55C91.7136 54.13 92.5776 53.92 93.5496 53.92C94.4856 53.92 95.3196 54.124 96.0516 54.532C96.7836 54.94 97.3536 55.516 97.7616 56.26C98.1696 56.992 98.3736 57.838 98.3736 58.798ZM96.2316 58.15C96.2196 57.394 95.9496 56.788 95.4216 56.332C94.8936 55.876 94.2396 55.648 93.4596 55.648C92.7516 55.648 92.1456 55.876 91.6416 56.332C91.1376 56.776 90.8376 57.382 90.7416 58.15H96.2316ZM102.787 55.756V61.246C102.787 61.618 102.871 61.888 103.039 62.056C103.219 62.212 103.519 62.29 103.939 62.29H105.199V64H103.579C102.655 64 101.947 63.784 101.455 63.352C100.963 62.92 100.717 62.218 100.717 61.246V55.756H99.547V54.082H100.717V51.616H102.787V54.082H105.199V55.756H102.787ZM116.18 58.798C116.18 59.17 116.156 59.506 116.108 59.806H108.53C108.59 60.598 108.884 61.234 109.412 61.714C109.94 62.194 110.588 62.434 111.356 62.434C112.46 62.434 113.24 61.972 113.696 61.048H115.91C115.61 61.96 115.064 62.71 114.272 63.298C113.492 63.874 112.52 64.162 111.356 64.162C110.408 64.162 109.556 63.952 108.8 63.532C108.056 63.1 107.468 62.5 107.036 61.732C106.616 60.952 106.406 60.052 106.406 59.032C106.406 58.012 106.61 57.118 107.018 56.35C107.438 55.57 108.02 54.97 108.764 54.55C109.52 54.13 110.384 53.92 111.356 53.92C112.292 53.92 113.126 54.124 113.858 54.532C114.59 54.94 115.16 55.516 115.568 56.26C115.976 56.992 116.18 57.838 116.18 58.798ZM114.038 58.15C114.026 57.394 113.756 56.788 113.228 56.332C112.7 55.876 112.046 55.648 111.266 55.648C110.558 55.648 109.952 55.876 109.448 56.332C108.944 56.776 108.644 57.382 108.548 58.15H114.038ZM120.252 55.522C120.552 55.018 120.948 54.628 121.44 54.352C121.944 54.064 122.538 53.92 123.222 53.92V56.044H122.7C121.896 56.044 121.284 56.248 120.864 56.656C120.456 57.064 120.252 57.772 120.252 58.78V64H118.2V54.082H120.252V55.522ZM126.152 52.768C125.78 52.768 125.468 52.642 125.216 52.39C124.964 52.138 124.838 51.826 124.838 51.454C124.838 51.082 124.964 50.77 125.216 50.518C125.468 50.266 125.78 50.14 126.152 50.14C126.512 50.14 126.818 50.266 127.07 50.518C127.322 50.77 127.448 51.082 127.448 51.454C127.448 51.826 127.322 52.138 127.07 52.39C126.818 52.642 126.512 52.768 126.152 52.768ZM127.16 54.082V64H125.108V54.082H127.16ZM134.858 53.92C135.638 53.92 136.334 54.082 136.946 54.406C137.57 54.73 138.056 55.21 138.404 55.846C138.752 56.482 138.926 57.25 138.926 58.15V64H136.892V58.456C136.892 57.568 136.67 56.89 136.226 56.422C135.782 55.942 135.176 55.702 134.408 55.702C133.64 55.702 133.028 55.942 132.572 56.422C132.128 56.89 131.906 57.568 131.906 58.456V64H129.854V54.082H131.906V55.216C132.242 54.808 132.668 54.49 133.184 54.262C133.712 54.034 134.27 53.92 134.858 53.92ZM140.859 58.996C140.859 58 141.063 57.118 141.471 56.35C141.891 55.582 142.455 54.988 143.163 54.568C143.883 54.136 144.675 53.92 145.539 53.92C146.319 53.92 146.997 54.076 147.573 54.388C148.161 54.688 148.629 55.066 148.977 55.522V54.082H151.047V64H148.977V62.524C148.629 62.992 148.155 63.382 147.555 63.694C146.955 64.006 146.271 64.162 145.503 64.162C144.651 64.162 143.871 63.946 143.163 63.514C142.455 63.07 141.891 62.458 141.471 61.678C141.063 60.886 140.859 59.992 140.859 58.996ZM148.977 59.032C148.977 58.348 148.833 57.754 148.545 57.25C148.269 56.746 147.903 56.362 147.447 56.098C146.991 55.834 146.499 55.702 145.971 55.702C145.443 55.702 144.951 55.834 144.495 56.098C144.039 56.35 143.667 56.728 143.379 57.232C143.103 57.724 142.965 58.312 142.965 58.996C142.965 59.68 143.103 60.28 143.379 60.796C143.667 61.312 144.039 61.708 144.495 61.984C144.963 62.248 145.455 62.38 145.971 62.38C146.499 62.38 146.991 62.248 147.447 61.984C147.903 61.72 148.269 61.336 148.545 60.832C148.833 60.316 148.977 59.716 148.977 59.032ZM155.795 55.522C156.095 55.018 156.491 54.628 156.983 54.352C157.487 54.064 158.081 53.92 158.765 53.92V56.044H158.243C157.439 56.044 156.827 56.248 156.407 56.656C155.999 57.064 155.795 57.772 155.795 58.78V64H153.743V54.082H155.795V55.522ZM161.695 52.768C161.323 52.768 161.011 52.642 160.759 52.39C160.507 52.138 160.381 51.826 160.381 51.454C160.381 51.082 160.507 50.77 160.759 50.518C161.011 50.266 161.323 50.14 161.695 50.14C162.055 50.14 162.361 50.266 162.613 50.518C162.865 50.77 162.991 51.082 162.991 51.454C162.991 51.826 162.865 52.138 162.613 52.39C162.361 52.642 162.055 52.768 161.695 52.768ZM162.703 54.082V64H160.651V54.082H162.703ZM164.713 58.996C164.713 58 164.917 57.118 165.325 56.35C165.745 55.582 166.309 54.988 167.017 54.568C167.737 54.136 168.529 53.92 169.393 53.92C170.173 53.92 170.851 54.076 171.427 54.388C172.015 54.688 172.483 55.066 172.831 55.522V54.082H174.901V64H172.831V62.524C172.483 62.992 172.009 63.382 171.409 63.694C170.809 64.006 170.125 64.162 169.357 64.162C168.505 64.162 167.725 63.946 167.017 63.514C166.309 63.07 165.745 62.458 165.325 61.678C164.917 60.886 164.713 59.992 164.713 58.996ZM172.831 59.032C172.831 58.348 172.687 57.754 172.399 57.25C172.123 56.746 171.757 56.362 171.301 56.098C170.845 55.834 170.353 55.702 169.825 55.702C169.297 55.702 168.805 55.834 168.349 56.098C167.893 56.35 167.521 56.728 167.233 57.232C166.957 57.724 166.819 58.312 166.819 58.996C166.819 59.68 166.957 60.28 167.233 60.796C167.521 61.312 167.893 61.708 168.349 61.984C168.817 62.248 169.309 62.38 169.825 62.38C170.353 62.38 170.845 62.248 171.301 61.984C171.757 61.72 172.123 61.336 172.399 60.832C172.687 60.316 172.831 59.716 172.831 59.032ZM182.6 53.92C183.38 53.92 184.076 54.082 184.688 54.406C185.312 54.73 185.798 55.21 186.146 55.846C186.494 56.482 186.668 57.25 186.668 58.15V64H184.634V58.456C184.634 57.568 184.412 56.89 183.968 56.422C183.524 55.942 182.918 55.702 182.15 55.702C181.382 55.702 180.77 55.942 180.314 56.422C179.87 56.89 179.648 57.568 179.648 58.456V64H177.596V54.082H179.648V55.216C179.984 54.808 180.41 54.49 180.926 54.262C181.454 54.034 182.012 53.92 182.6 53.92Z" fill="black"/>
<rect x="218" width="24" height="24" rx="4" fill="#FFCBBD"/>
<path d="M228.5 14.085L227.123 12.7075C226.731 12.3164 226.098 12.3153 225.705 12.705V12.705L227.651 14.6515C228.12 15.1201 228.88 15.1201 229.349 14.6515L234.343 9.65677C234.43 9.57021 234.43 9.42988 234.343 9.34332V9.34332C234.04 9.04047 233.549 9.04036 233.246 9.34306L228.5 14.085Z" fill="white"/>
<path d="M260.098 11.216C260.098 11.852 259.948 12.452 259.648 13.016C259.348 13.58 258.868 14.042 258.208 14.402C257.548 14.75 256.702 14.924 255.67 14.924H253.402V20H251.35V7.49H255.67C256.63 7.49 257.44 7.658 258.1 7.994C258.772 8.318 259.27 8.762 259.594 9.326C259.93 9.89 260.098 10.52 260.098 11.216ZM255.67 13.25C256.45 13.25 257.032 13.076 257.416 12.728C257.8 12.368 257.992 11.864 257.992 11.216C257.992 9.848 257.218 9.164 255.67 9.164H253.402V13.25H255.67ZM271.145 14.798C271.145 15.17 271.121 15.506 271.073 15.806H263.495C263.555 16.598 263.849 17.234 264.377 17.714C264.905 18.194 265.553 18.434 266.321 18.434C267.425 18.434 268.205 17.972 268.661 17.048H270.875C270.575 17.96 270.029 18.71 269.237 19.298C268.457 19.874 267.485 20.162 266.321 20.162C265.373 20.162 264.521 19.952 263.765 19.532C263.021 19.1 262.433 18.5 262.001 17.732C261.581 16.952 261.371 16.052 261.371 15.032C261.371 14.012 261.575 13.118 261.983 12.35C262.403 11.57 262.985 10.97 263.729 10.55C264.485 10.13 265.349 9.92 266.321 9.92C267.257 9.92 268.091 10.124 268.823 10.532C269.555 10.94 270.125 11.516 270.533 12.26C270.941 12.992 271.145 13.838 271.145 14.798ZM269.003 14.15C268.991 13.394 268.721 12.788 268.193 12.332C267.665 11.876 267.011 11.648 266.231 11.648C265.523 11.648 264.917 11.876 264.413 12.332C263.909 12.776 263.609 13.382 263.513 14.15H269.003ZM275.558 11.756V17.246C275.558 17.618 275.642 17.888 275.81 18.056C275.99 18.212 276.29 18.29 276.71 18.29H277.97V20H276.35C275.426 20 274.718 19.784 274.226 19.352C273.734 18.92 273.488 18.218 273.488 17.246V11.756H272.318V10.082H273.488V7.616H275.558V10.082H277.97V11.756H275.558ZM283.854 15.032C283.854 14.012 284.058 13.118 284.466 12.35C284.886 11.57 285.462 10.97 286.194 10.55C286.926 10.13 287.766 9.92 288.714 9.92C289.914 9.92 290.904 10.208 291.684 10.784C292.476 11.348 293.01 12.158 293.286 13.214H291.072C290.892 12.722 290.604 12.338 290.208 12.062C289.812 11.786 289.314 11.648 288.714 11.648C287.874 11.648 287.202 11.948 286.698 12.548C286.206 13.136 285.96 13.964 285.96 15.032C285.96 16.1 286.206 16.934 286.698 17.534C287.202 18.134 287.874 18.434 288.714 18.434C289.902 18.434 290.688 17.912 291.072 16.868H293.286C292.998 17.876 292.458 18.68 291.666 19.28C290.874 19.868 289.89 20.162 288.714 20.162C287.766 20.162 286.926 19.952 286.194 19.532C285.462 19.1 284.886 18.5 284.466 17.732C284.058 16.952 283.854 16.052 283.854 15.032ZM294.646 14.996C294.646 14 294.85 13.118 295.258 12.35C295.678 11.582 296.242 10.988 296.95 10.568C297.67 10.136 298.462 9.92 299.326 9.92C300.106 9.92 300.784 10.076 301.36 10.388C301.948 10.688 302.416 11.066 302.764 11.522V10.082H304.834V20H302.764V18.524C302.416 18.992 301.942 19.382 301.342 19.694C300.742 20.006 300.058 20.162 299.29 20.162C298.438 20.162 297.658 19.946 296.95 19.514C296.242 19.07 295.678 18.458 295.258 17.678C294.85 16.886 294.646 15.992 294.646 14.996ZM302.764 15.032C302.764 14.348 302.62 13.754 302.332 13.25C302.056 12.746 301.69 12.362 301.234 12.098C300.778 11.834 300.286 11.702 299.758 11.702C299.23 11.702 298.738 11.834 298.282 12.098C297.826 12.35 297.454 12.728 297.166 13.232C296.89 13.724 296.752 14.312 296.752 14.996C296.752 15.68 296.89 16.28 297.166 16.796C297.454 17.312 297.826 17.708 298.282 17.984C298.75 18.248 299.242 18.38 299.758 18.38C300.286 18.38 300.778 18.248 301.234 17.984C301.69 17.72 302.056 17.336 302.332 16.832C302.62 16.316 302.764 15.716 302.764 15.032ZM309.582 11.522C309.882 11.018 310.278 10.628 310.77 10.352C311.274 10.064 311.868 9.92 312.552 9.92V12.044H312.03C311.226 12.044 310.614 12.248 310.194 12.656C309.786 13.064 309.582 13.772 309.582 14.78V20H307.53V10.082H309.582V11.522ZM323.528 14.798C323.528 15.17 323.504 15.506 323.456 15.806H315.878C315.938 16.598 316.232 17.234 316.76 17.714C317.288 18.194 317.936 18.434 318.704 18.434C319.808 18.434 320.588 17.972 321.044 17.048H323.258C322.958 17.96 322.412 18.71 321.62 19.298C320.84 19.874 319.868 20.162 318.704 20.162C317.756 20.162 316.904 19.952 316.148 19.532C315.404 19.1 314.816 18.5 314.384 17.732C313.964 16.952 313.754 16.052 313.754 15.032C313.754 14.012 313.958 13.118 314.366 12.35C314.786 11.57 315.368 10.97 316.112 10.55C316.868 10.13 317.732 9.92 318.704 9.92C319.64 9.92 320.474 10.124 321.206 10.532C321.938 10.94 322.508 11.516 322.916 12.26C323.324 12.992 323.528 13.838 323.528 14.798ZM321.386 14.15C321.374 13.394 321.104 12.788 320.576 12.332C320.048 11.876 319.394 11.648 318.614 11.648C317.906 11.648 317.3 11.876 316.796 12.332C316.292 12.776 315.992 13.382 315.896 14.15H321.386ZM337.837 12.62V14.348H330.439V12.62H337.837ZM346.292 17.21C347.444 16.214 348.35 15.398 349.01 14.762C349.682 14.114 350.24 13.442 350.684 12.746C351.128 12.05 351.35 11.354 351.35 10.658C351.35 9.938 351.176 9.374 350.828 8.966C350.492 8.558 349.958 8.354 349.226 8.354C348.518 8.354 347.966 8.582 347.57 9.038C347.186 9.482 346.982 10.082 346.958 10.838H344.978C345.014 9.47 345.422 8.426 346.202 7.706C346.994 6.974 347.996 6.608 349.208 6.608C350.516 6.608 351.536 6.968 352.268 7.688C353.012 8.408 353.384 9.368 353.384 10.568C353.384 11.432 353.162 12.266 352.718 13.07C352.286 13.862 351.764 14.576 351.152 15.212C350.552 15.836 349.784 16.562 348.848 17.39L348.038 18.11H353.744V19.82H344.996V18.326L346.292 17.21ZM355.295 17.264V15.716L361.343 7.04H363.827V15.482H365.501V17.264H363.827V20H361.811V17.264H355.295ZM361.901 9.128L357.653 15.482H361.901V9.128ZM374.131 3.008L369.235 23.15H367.219L372.097 3.008H374.131ZM384.763 8.462L379.759 20H377.689L382.747 8.678H376.087V6.932H384.763V8.462Z" fill="black"/>
<rect x="218" y="44" width="24" height="24" rx="4" fill="#FFCBBD"/>
<path d="M228.5 58.085L227.123 56.7075C226.731 56.3164 226.098 56.3153 225.705 56.705V56.705L227.651 58.6515C228.12 59.1201 228.88 59.1201 229.349 58.6515L234.343 53.6568C234.43 53.5702 234.43 53.4299 234.343 53.3433V53.3433C234.04 53.0405 233.549 53.0404 233.246 53.3431L228.5 58.085Z" fill="white"/>
<path d="M261.034 66.268L258.838 63.892C258.298 64.048 257.704 64.126 257.056 64.126C255.892 64.126 254.818 63.856 253.834 63.316C252.862 62.764 252.088 62.002 251.512 61.03C250.948 60.046 250.666 58.942 250.666 57.718C250.666 56.494 250.948 55.396 251.512 54.424C252.088 53.452 252.862 52.696 253.834 52.156C254.818 51.604 255.892 51.328 257.056 51.328C258.232 51.328 259.306 51.604 260.278 52.156C261.262 52.696 262.036 53.452 262.6 54.424C263.164 55.396 263.446 56.494 263.446 57.718C263.446 58.87 263.194 59.914 262.69 60.85C262.198 61.774 261.514 62.518 260.638 63.082L263.644 66.268H261.034ZM252.772 57.718C252.772 58.642 252.952 59.458 253.312 60.166C253.684 60.862 254.194 61.402 254.842 61.786C255.49 62.158 256.228 62.344 257.056 62.344C257.884 62.344 258.622 62.158 259.27 61.786C259.918 61.402 260.422 60.862 260.782 60.166C261.154 59.458 261.34 58.642 261.34 57.718C261.34 56.794 261.154 55.984 260.782 55.288C260.422 54.592 259.918 54.058 259.27 53.686C258.622 53.314 257.884 53.128 257.056 53.128C256.228 53.128 255.49 53.314 254.842 53.686C254.194 54.058 253.684 54.592 253.312 55.288C252.952 55.984 252.772 56.794 252.772 57.718ZM274.5 54.082V64H272.448V62.83C272.124 63.238 271.698 63.562 271.17 63.802C270.654 64.03 270.102 64.144 269.514 64.144C268.734 64.144 268.032 63.982 267.408 63.658C266.796 63.334 266.31 62.854 265.95 62.218C265.602 61.582 265.428 60.814 265.428 59.914V54.082H267.462V59.608C267.462 60.496 267.684 61.18 268.128 61.66C268.572 62.128 269.178 62.362 269.946 62.362C270.714 62.362 271.32 62.128 271.764 61.66C272.22 61.18 272.448 60.496 272.448 59.608V54.082H274.5ZM276.523 58.996C276.523 58 276.727 57.118 277.135 56.35C277.555 55.582 278.119 54.988 278.827 54.568C279.547 54.136 280.339 53.92 281.203 53.92C281.983 53.92 282.661 54.076 283.237 54.388C283.825 54.688 284.293 55.066 284.641 55.522V54.082H286.711V64H284.641V62.524C284.293 62.992 283.819 63.382 283.219 63.694C282.619 64.006 281.935 64.162 281.167 64.162C280.315 64.162 279.535 63.946 278.827 63.514C278.119 63.07 277.555 62.458 277.135 61.678C276.727 60.886 276.523 59.992 276.523 58.996ZM284.641 59.032C284.641 58.348 284.497 57.754 284.209 57.25C283.933 56.746 283.567 56.362 283.111 56.098C282.655 55.834 282.163 55.702 281.635 55.702C281.107 55.702 280.615 55.834 280.159 56.098C279.703 56.35 279.331 56.728 279.043 57.232C278.767 57.724 278.629 58.312 278.629 58.996C278.629 59.68 278.767 60.28 279.043 60.796C279.331 61.312 279.703 61.708 280.159 61.984C280.627 62.248 281.119 62.38 281.635 62.38C282.163 62.38 282.655 62.248 283.111 61.984C283.567 61.72 283.933 61.336 284.209 60.832C284.497 60.316 284.641 59.716 284.641 59.032ZM291.459 50.68V64H289.407V50.68H291.459ZM295.197 52.768C294.825 52.768 294.513 52.642 294.261 52.39C294.009 52.138 293.883 51.826 293.883 51.454C293.883 51.082 294.009 50.77 294.261 50.518C294.513 50.266 294.825 50.14 295.197 50.14C295.557 50.14 295.863 50.266 296.115 50.518C296.367 50.77 296.493 51.082 296.493 51.454C296.493 51.826 296.367 52.138 296.115 52.39C295.863 52.642 295.557 52.768 295.197 52.768ZM296.205 54.082V64H294.153V54.082H296.205ZM301.293 55.756V61.246C301.293 61.618 301.377 61.888 301.545 62.056C301.725 62.212 302.025 62.29 302.445 62.29H303.705V64H302.085C301.161 64 300.453 63.784 299.961 63.352C299.469 62.92 299.223 62.218 299.223 61.246V55.756H298.053V54.082H299.223V51.616H301.293V54.082H303.705V55.756H301.293ZM314.524 54.082L308.44 68.662H306.316L308.332 63.838L304.426 54.082H306.712L309.502 61.642L312.4 54.082H314.524ZM328.11 51.49V53.164H322.8V56.854H326.94V58.528H322.8V64H320.748V51.49H328.11ZM339.102 58.798C339.102 59.17 339.078 59.506 339.03 59.806H331.452C331.512 60.598 331.806 61.234 332.334 61.714C332.862 62.194 333.51 62.434 334.278 62.434C335.382 62.434 336.162 61.972 336.618 61.048H338.832C338.532 61.96 337.986 62.71 337.194 63.298C336.414 63.874 335.442 64.162 334.278 64.162C333.33 64.162 332.478 63.952 331.722 63.532C330.978 63.1 330.39 62.5 329.958 61.732C329.538 60.952 329.328 60.052 329.328 59.032C329.328 58.012 329.532 57.118 329.94 56.35C330.36 55.57 330.942 54.97 331.686 54.55C332.442 54.13 333.306 53.92 334.278 53.92C335.214 53.92 336.048 54.124 336.78 54.532C337.512 54.94 338.082 55.516 338.49 56.26C338.898 56.992 339.102 57.838 339.102 58.798ZM336.96 58.15C336.948 57.394 336.678 56.788 336.15 56.332C335.622 55.876 334.968 55.648 334.188 55.648C333.48 55.648 332.874 55.876 332.37 56.332C331.866 56.776 331.566 57.382 331.47 58.15H336.96ZM350.211 58.798C350.211 59.17 350.187 59.506 350.139 59.806H342.561C342.621 60.598 342.915 61.234 343.443 61.714C343.971 62.194 344.619 62.434 345.387 62.434C346.491 62.434 347.271 61.972 347.727 61.048H349.941C349.641 61.96 349.095 62.71 348.303 63.298C347.523 63.874 346.551 64.162 345.387 64.162C344.439 64.162 343.587 63.952 342.831 63.532C342.087 63.1 341.499 62.5 341.067 61.732C340.647 60.952 340.437 60.052 340.437 59.032C340.437 58.012 340.641 57.118 341.049 56.35C341.469 55.57 342.051 54.97 342.795 54.55C343.551 54.13 344.415 53.92 345.387 53.92C346.323 53.92 347.157 54.124 347.889 54.532C348.621 54.94 349.191 55.516 349.599 56.26C350.007 56.992 350.211 57.838 350.211 58.798ZM348.069 58.15C348.057 57.394 347.787 56.788 347.259 56.332C346.731 55.876 346.077 55.648 345.297 55.648C344.589 55.648 343.983 55.876 343.479 56.332C342.975 56.776 342.675 57.382 342.579 58.15H348.069ZM351.547 58.996C351.547 58 351.751 57.118 352.159 56.35C352.579 55.582 353.143 54.988 353.851 54.568C354.571 54.136 355.369 53.92 356.245 53.92C356.893 53.92 357.529 54.064 358.153 54.352C358.789 54.628 359.293 55 359.665 55.468V50.68H361.735V64H359.665V62.506C359.329 62.986 358.861 63.382 358.261 63.694C357.673 64.006 356.995 64.162 356.227 64.162C355.363 64.162 354.571 63.946 353.851 63.514C353.143 63.07 352.579 62.458 352.159 61.678C351.751 60.886 351.547 59.992 351.547 58.996ZM359.665 59.032C359.665 58.348 359.521 57.754 359.233 57.25C358.957 56.746 358.591 56.362 358.135 56.098C357.679 55.834 357.187 55.702 356.659 55.702C356.131 55.702 355.639 55.834 355.183 56.098C354.727 56.35 354.355 56.728 354.067 57.232C353.791 57.724 353.653 58.312 353.653 58.996C353.653 59.68 353.791 60.28 354.067 60.796C354.355 61.312 354.727 61.708 355.183 61.984C355.651 62.248 356.143 62.38 356.659 62.38C357.187 62.38 357.679 62.248 358.135 61.984C358.591 61.72 358.957 61.336 359.233 60.832C359.521 60.316 359.665 59.716 359.665 59.032Z" fill="black"/>
</svg>
