<svg width="100" height="100" viewBox="0 0 100 100" fill="none" xmlns="http://www.w3.org/2000/svg">
<path d="M57.75 58.1257C54.4374 57.3132 49.125 55.9383 46.9374 55.3757L37.0624 62.0631L27.2498 55.3131C24.9998 55.9381 19.7498 57.2505 16.4372 58.0631C14.6872 58.5006 13.4372 59.9381 13.2498 61.6881C12.6873 65.9381 11.5624 78.1253 11.5624 78.1253H62.6252C62.6252 78.1253 61.5002 66.0003 61.0002 61.751C60.7502 59.9384 59.5002 58.501 57.7502 58.126L57.75 58.1257Z" fill="#149DC3"/>
<path d="M26.4999 43.25C27.4999 48.3126 31.9373 52 37.1249 52C42.3125 52 46.7499 48.3126 47.7499 43.25L49.3749 34.75C50.3124 27.9374 44.9999 21.875 38.1249 21.875H36.1875C29.3125 21.875 24 27.9376 24.9375 34.75L26.4999 43.25Z" fill="#149DC3"/>
<path d="M85.0628 1.87504H44.8128C42.9378 1.87504 41.3754 3.37504 41.3754 5.31247V18.4375C44.5004 19.125 47.3128 20.8125 49.4379 23.25C52.3129 26.5626 53.6254 30.9375 53.0629 35.25L53.0004 35.4375L52.6254 37.3125H58.3754C58.8129 40.0625 58.3754 42.9375 57.1254 45.5C61.5004 44.25 65.2504 41.5 67.7504 37.625L67.9379 37.3125H85.0008C86.8758 37.3125 88.4382 35.8125 88.4382 33.875V5.31218C88.4382 3.43718 86.9382 1.87476 85.0632 1.87476L85.0628 1.87504Z" fill="#149DC3"/>
</svg>
