<svg width="1440" height="1024" viewBox="0 0 1440 1024" fill="none" xmlns="http://www.w3.org/2000/svg">
<rect width="1440" height="1024" fill="white"/>
<path d="M245.731 246.275C245.345 244.215 244.314 242.331 242.787 240.894C241.259 239.459 239.314 238.547 237.234 238.289C235.884 238.14 234.52 238.262 233.218 238.649C230.99 239.386 228.545 239.005 226.646 237.627C223.088 234.875 218.344 234.199 214.161 235.85C209.976 237.501 206.971 241.233 206.251 245.673C206.251 246.049 206.147 246.41 206.116 246.772C205.977 248.628 205.106 250.354 203.695 251.569C201.473 253.53 200.255 256.389 200.381 259.349C200.506 262.31 201.962 265.055 204.342 266.821C206.722 268.587 209.772 269.182 212.641 268.444C215.512 267.705 217.894 265.71 219.126 263.015L219.307 262.623C219.922 261.326 221.077 260.364 222.464 259.991C223.841 259.595 225.139 258.964 226.3 258.126C228.057 256.787 230.376 256.436 232.451 257.194C234.637 258.062 237.06 258.116 239.283 257.348C241.505 256.579 243.378 255.039 244.561 253.008C245.745 250.976 246.16 248.586 245.731 246.275L245.731 246.275Z" fill="#149DC3" fill-opacity="0.1"/>
<path d="M229.757 220.24C229.757 225.581 226.188 229.911 221.786 229.911C217.383 229.911 213.814 225.581 213.814 220.24C213.814 214.899 217.383 210.569 221.786 210.569C226.188 210.569 229.757 214.899 229.757 220.24Z" fill="#149DC3" fill-opacity="0.1"/>
<path d="M210.755 221.164C212.724 226.128 211.003 231.469 206.91 233.092C202.818 234.714 197.905 232.005 195.936 227.04C193.968 222.076 195.689 216.736 199.781 215.113C203.873 213.49 208.787 216.198 210.755 221.164Z" fill="#149DC3" fill-opacity="0.1"/>
<path d="M199.263 235.412C202.376 238.525 202.818 243.129 200.252 245.695C197.685 248.262 193.082 247.82 189.968 244.707C186.855 241.593 186.413 236.99 188.98 234.423C191.546 231.855 196.15 232.298 199.263 235.412" fill="#149DC3" fill-opacity="0.1"/>
<path d="M239.229 219.101C242.721 220.094 244.577 224.331 243.373 228.565C242.17 232.801 238.365 235.43 234.872 234.437C231.381 233.446 229.526 229.208 230.728 224.973C231.932 220.739 235.738 218.11 239.229 219.101Z" fill="#149DC3" fill-opacity="0.1"/>
<path d="M186.232 210.405C187.36 208.637 187.896 206.555 187.761 204.462C187.625 202.369 186.827 200.372 185.48 198.764C184.595 197.74 183.517 196.902 182.306 196.298C180.166 195.327 178.626 193.384 178.171 191.078C177.431 186.632 174.406 182.905 170.206 181.266C166.008 179.628 161.256 180.322 157.701 183.093C157.416 183.333 157.129 183.574 156.874 183.814C155.495 185.064 153.681 185.723 151.821 185.649C148.859 185.593 146.031 186.874 144.119 189.136C142.208 191.398 141.418 194.402 141.968 197.312C142.518 200.222 144.351 202.73 146.957 204.137C149.563 205.545 152.664 205.704 155.4 204.57L155.792 204.404C157.127 203.876 158.628 203.958 159.897 204.629C161.175 205.273 162.553 205.69 163.974 205.863C166.174 206.075 168.115 207.397 169.116 209.367C169.718 210.665 170.601 211.811 171.704 212.721C173.876 214.509 176.711 215.279 179.49 214.836C182.268 214.392 184.723 212.78 186.232 210.405L186.232 210.405Z" fill="#149DC3" fill-opacity="0.1"/>
<path d="M190.626 165.441C194.114 168.127 194.3 173.735 191.041 177.967C187.783 182.198 182.313 183.452 178.826 180.765C175.337 178.079 175.152 172.471 178.41 168.24C181.669 164.008 187.139 162.755 190.626 165.441Z" fill="#149DC3" fill-opacity="0.1"/>
<path d="M170.429 155.627C174.662 156.837 176.901 161.982 175.432 167.117C173.963 172.252 169.34 175.433 165.107 174.221C160.875 173.01 158.635 167.865 160.105 162.731C161.574 157.596 166.196 154.415 170.429 155.627Z" fill="#149DC3" fill-opacity="0.1"/>
<path d="M157.637 171.406C158.204 175.771 155.746 179.689 152.146 180.156C148.547 180.624 145.169 177.464 144.601 173.098C144.035 168.733 146.493 164.814 150.092 164.347C153.693 163.879 157.07 167.039 157.637 171.406Z" fill="#149DC3" fill-opacity="0.1"/>
<path d="M199.26 182.847C201.422 185.763 200.306 190.252 196.77 192.873C193.232 195.494 188.613 195.254 186.452 192.338C184.291 189.423 185.406 184.933 188.944 182.312C192.48 179.691 197.099 179.93 199.26 182.847" fill="#149DC3" fill-opacity="0.1"/>
<path d="M1324.73 771.275C1324.35 769.215 1323.31 767.331 1321.79 765.894C1320.26 764.459 1318.31 763.547 1316.23 763.289C1314.88 763.14 1313.52 763.262 1312.22 763.649C1309.99 764.386 1307.55 764.005 1305.65 762.627C1302.09 759.875 1297.34 759.199 1293.16 760.85C1288.98 762.501 1285.97 766.233 1285.25 770.673C1285.25 771.049 1285.15 771.41 1285.12 771.772C1284.98 773.628 1284.11 775.354 1282.69 776.569C1280.47 778.53 1279.25 781.389 1279.38 784.349C1279.51 787.31 1280.96 790.055 1283.34 791.821C1285.72 793.587 1288.77 794.182 1291.64 793.444C1294.51 792.705 1296.89 790.71 1298.13 788.015L1298.31 787.623C1298.92 786.326 1300.08 785.364 1301.46 784.991C1302.84 784.595 1304.14 783.964 1305.3 783.126C1307.06 781.787 1309.38 781.436 1311.45 782.194C1313.64 783.062 1316.06 783.116 1318.28 782.348C1320.51 781.579 1322.38 780.039 1323.56 778.008C1324.74 775.976 1325.16 773.586 1324.73 771.275L1324.73 771.275Z" fill="#149DC3" fill-opacity="0.14"/>
<path d="M1308.76 745.24C1308.76 750.581 1305.19 754.911 1300.79 754.911C1296.38 754.911 1292.81 750.581 1292.81 745.24C1292.81 739.899 1296.38 735.569 1300.79 735.569C1305.19 735.569 1308.76 739.899 1308.76 745.24Z" fill="#149DC3" fill-opacity="0.14"/>
<path d="M1289.76 746.164C1291.72 751.128 1290 756.469 1285.91 758.092C1281.82 759.714 1276.9 757.005 1274.94 752.04C1272.97 747.076 1274.69 741.736 1278.78 740.113C1282.87 738.49 1287.79 741.198 1289.76 746.164Z" fill="#149DC3" fill-opacity="0.14"/>
<path d="M1278.26 760.412C1281.38 763.525 1281.82 768.129 1279.25 770.695C1276.69 773.262 1272.08 772.82 1268.97 769.707C1265.86 766.593 1265.41 761.99 1267.98 759.423C1270.55 756.855 1275.15 757.298 1278.26 760.412" fill="#149DC3" fill-opacity="0.14"/>
<path d="M1318.23 744.101C1321.72 745.094 1323.58 749.331 1322.37 753.565C1321.17 757.801 1317.37 760.43 1313.87 759.437C1310.38 758.446 1308.53 754.208 1309.73 749.973C1310.93 745.739 1314.74 743.11 1318.23 744.101Z" fill="#149DC3" fill-opacity="0.14"/>
<path d="M1265.23 735.405C1266.36 733.637 1266.9 731.555 1266.76 729.462C1266.63 727.369 1265.83 725.372 1264.48 723.764C1263.6 722.74 1262.52 721.902 1261.31 721.298C1259.17 720.327 1257.63 718.384 1257.17 716.078C1256.43 711.632 1253.41 707.905 1249.21 706.266C1245.01 704.628 1240.26 705.322 1236.7 708.093C1236.42 708.333 1236.13 708.574 1235.87 708.814C1234.49 710.064 1232.68 710.723 1230.82 710.649C1227.86 710.593 1225.03 711.874 1223.12 714.136C1221.21 716.398 1220.42 719.402 1220.97 722.312C1221.52 725.222 1223.35 727.73 1225.96 729.137C1228.56 730.545 1231.66 730.704 1234.4 729.57L1234.79 729.404C1236.13 728.876 1237.63 728.958 1238.9 729.629C1240.17 730.273 1241.55 730.69 1242.97 730.863C1245.17 731.075 1247.11 732.397 1248.12 734.367C1248.72 735.665 1249.6 736.811 1250.7 737.721C1252.88 739.509 1255.71 740.279 1258.49 739.836C1261.27 739.392 1263.72 737.78 1265.23 735.405L1265.23 735.405Z" fill="#149DC3" fill-opacity="0.14"/>
<path d="M1269.63 690.441C1273.11 693.127 1273.3 698.735 1270.04 702.967C1266.78 707.198 1261.31 708.452 1257.83 705.765C1254.34 703.079 1254.15 697.471 1257.41 693.24C1260.67 689.008 1266.14 687.755 1269.63 690.441Z" fill="#149DC3" fill-opacity="0.14"/>
<path d="M1249.43 680.627C1253.66 681.837 1255.9 686.982 1254.43 692.117C1252.96 697.252 1248.34 700.433 1244.11 699.221C1239.88 698.01 1237.64 692.865 1239.11 687.731C1240.57 682.596 1245.2 679.415 1249.43 680.627Z" fill="#149DC3" fill-opacity="0.14"/>
<path d="M1236.64 696.406C1237.2 700.771 1234.75 704.689 1231.15 705.156C1227.55 705.624 1224.17 702.464 1223.6 698.098C1223.03 693.733 1225.49 689.814 1229.09 689.347C1232.69 688.879 1236.07 692.039 1236.64 696.406Z" fill="#149DC3" fill-opacity="0.14"/>
<path d="M1278.26 707.847C1280.42 710.763 1279.31 715.252 1275.77 717.873C1272.23 720.494 1267.61 720.254 1265.45 717.338C1263.29 714.423 1264.41 709.933 1267.94 707.312C1271.48 704.691 1276.1 704.93 1278.26 707.847" fill="#149DC3" fill-opacity="0.14"/>
<path d="M1332.85 898.033C1332.63 896.828 1332.02 895.725 1331.13 894.885C1330.24 894.045 1329.1 893.511 1327.88 893.36C1327.09 893.273 1326.29 893.345 1325.53 893.571C1324.23 894.002 1322.8 893.78 1321.69 892.973C1319.6 891.363 1316.83 890.967 1314.38 891.934C1311.93 892.899 1310.17 895.083 1309.75 897.681C1309.75 897.901 1309.69 898.112 1309.67 898.324C1309.59 899.41 1309.08 900.42 1308.26 901.131C1306.96 902.278 1306.24 903.951 1306.32 905.683C1306.39 907.415 1307.24 909.022 1308.64 910.055C1310.03 911.088 1311.81 911.437 1313.49 911.004C1315.17 910.572 1316.57 909.405 1317.29 907.828L1317.39 907.599C1317.75 906.839 1318.43 906.277 1319.24 906.059C1320.05 905.827 1320.8 905.458 1321.48 904.967C1322.51 904.184 1323.87 903.978 1325.08 904.422C1326.36 904.93 1327.78 904.962 1329.08 904.512C1330.38 904.062 1331.48 903.161 1332.17 901.973C1332.86 900.784 1333.1 899.386 1332.85 898.033L1332.85 898.033Z" fill="#C4C4C4" fill-opacity="0.4"/>
<path d="M1323.51 882.8C1323.51 885.925 1321.42 888.458 1318.84 888.458C1316.27 888.458 1314.18 885.925 1314.18 882.8C1314.18 879.675 1316.27 877.142 1318.84 877.142C1321.42 877.142 1323.51 879.675 1323.51 882.8Z" fill="#C4C4C4" fill-opacity="0.4"/>
<path d="M1312.39 883.341C1313.54 886.245 1312.53 889.37 1310.14 890.32C1307.74 891.269 1304.87 889.684 1303.72 886.779C1302.57 883.874 1303.57 880.75 1305.97 879.8C1308.36 878.85 1311.24 880.435 1312.39 883.341Z" fill="#C4C4C4" fill-opacity="0.4"/>
<path d="M1305.66 891.677C1307.49 893.498 1307.74 896.192 1306.24 897.694C1304.74 899.196 1302.05 898.937 1300.23 897.116C1298.4 895.294 1298.15 892.6 1299.65 891.098C1301.15 889.596 1303.84 889.855 1305.66 891.677" fill="#C4C4C4" fill-opacity="0.4"/>
<path d="M1329.05 882.134C1331.09 882.714 1332.18 885.194 1331.47 887.671C1330.77 890.149 1328.54 891.688 1326.5 891.107C1324.46 890.527 1323.37 888.047 1324.08 885.569C1324.78 883.092 1327.01 881.554 1329.05 882.134Z" fill="#C4C4C4" fill-opacity="0.4"/>
<path d="M1298.04 877.046C1298.7 876.011 1299.01 874.793 1298.93 873.568C1298.86 872.344 1298.39 871.175 1297.6 870.234C1297.08 869.635 1296.45 869.145 1295.74 868.791C1294.49 868.223 1293.59 867.087 1293.32 865.737C1292.89 863.136 1291.12 860.955 1288.66 859.996C1286.21 859.038 1283.43 859.444 1281.35 861.065C1281.18 861.205 1281.01 861.347 1280.86 861.487C1280.06 862.218 1278.99 862.604 1277.91 862.561C1276.17 862.528 1274.52 863.277 1273.4 864.601C1272.28 865.925 1271.82 867.682 1272.14 869.385C1272.46 871.087 1273.54 872.555 1275.06 873.378C1276.58 874.202 1278.4 874.295 1280 873.631L1280.23 873.534C1281.01 873.225 1281.89 873.273 1282.63 873.666C1283.38 874.042 1284.19 874.287 1285.02 874.388C1286.3 874.512 1287.44 875.285 1288.03 876.438C1288.38 877.198 1288.89 877.868 1289.54 878.401C1290.81 879.447 1292.47 879.897 1294.1 879.638C1295.72 879.379 1297.16 878.435 1298.04 877.045L1298.04 877.046Z" fill="#C4C4C4" fill-opacity="0.4"/>
<path d="M1300.61 850.737C1302.65 852.309 1302.76 855.59 1300.85 858.066C1298.95 860.541 1295.75 861.275 1293.71 859.703C1291.67 858.132 1291.56 854.85 1293.46 852.374C1295.37 849.898 1298.57 849.165 1300.61 850.737Z" fill="#C4C4C4" fill-opacity="0.4"/>
<path d="M1288.79 844.994C1291.27 845.703 1292.58 848.713 1291.72 851.718C1290.86 854.722 1288.16 856.583 1285.68 855.874C1283.2 855.166 1281.89 852.155 1282.75 849.151C1283.61 846.146 1286.32 844.285 1288.79 844.994Z" fill="#C4C4C4" fill-opacity="0.4"/>
<path d="M1281.31 854.227C1281.64 856.781 1280.2 859.074 1278.1 859.347C1275.99 859.62 1274.01 857.772 1273.68 855.217C1273.35 852.663 1274.79 850.37 1276.89 850.097C1279 849.823 1280.98 851.672 1281.31 854.227Z" fill="#C4C4C4" fill-opacity="0.4"/>
<path d="M1305.66 860.921C1306.93 862.627 1306.27 865.254 1304.21 866.787C1302.14 868.321 1299.43 868.181 1298.17 866.474C1296.9 864.768 1297.56 862.142 1299.63 860.608C1301.7 859.074 1304.4 859.214 1305.66 860.921" fill="#C4C4C4" fill-opacity="0.4"/>
<path d="M1028.73 363.275C1028.35 361.215 1027.31 359.331 1025.79 357.894C1024.26 356.459 1022.31 355.547 1020.23 355.289C1018.88 355.14 1017.52 355.262 1016.22 355.649C1013.99 356.386 1011.55 356.005 1009.65 354.627C1006.09 351.875 1001.34 351.199 997.161 352.85C992.976 354.501 989.971 358.233 989.251 362.673C989.251 363.049 989.147 363.41 989.116 363.772C988.977 365.628 988.106 367.354 986.695 368.569C984.473 370.53 983.255 373.389 983.381 376.349C983.506 379.31 984.962 382.055 987.342 383.821C989.722 385.587 992.772 386.182 995.641 385.444C998.512 384.705 1000.89 382.71 1002.13 380.015L1002.31 379.623C1002.92 378.326 1004.08 377.364 1005.46 376.991C1006.84 376.595 1008.14 375.964 1009.3 375.126C1011.06 373.787 1013.38 373.436 1015.45 374.194C1017.64 375.062 1020.06 375.116 1022.28 374.348C1024.51 373.579 1026.38 372.039 1027.56 370.008C1028.74 367.976 1029.16 365.586 1028.73 363.275L1028.73 363.275Z" fill="#E5E5E5" fill-opacity="0.5"/>
<path d="M1012.76 337.24C1012.76 342.581 1009.19 346.911 1004.79 346.911C1000.38 346.911 996.814 342.581 996.814 337.24C996.814 331.899 1000.38 327.569 1004.79 327.569C1009.19 327.569 1012.76 331.899 1012.76 337.24Z" fill="#E5E5E5" fill-opacity="0.5"/>
<path d="M993.755 338.164C995.724 343.128 994.003 348.469 989.91 350.092C985.818 351.714 980.905 349.005 978.936 344.04C976.968 339.076 978.689 333.736 982.781 332.113C986.873 330.49 991.787 333.198 993.755 338.164Z" fill="#E5E5E5" fill-opacity="0.5"/>
<path d="M982.263 352.412C985.376 355.525 985.818 360.129 983.252 362.695C980.685 365.262 976.082 364.82 972.968 361.707C969.855 358.593 969.413 353.99 971.98 351.423C974.546 348.855 979.15 349.298 982.263 352.412" fill="#E5E5E5" fill-opacity="0.5"/>
<path d="M1022.23 336.101C1025.72 337.094 1027.58 341.331 1026.37 345.565C1025.17 349.801 1021.36 352.43 1017.87 351.437C1014.38 350.446 1012.53 346.208 1013.73 341.973C1014.93 337.739 1018.74 335.11 1022.23 336.101Z" fill="#E5E5E5" fill-opacity="0.5"/>
<path d="M969.232 327.405C970.36 325.637 970.896 323.555 970.761 321.462C970.625 319.369 969.827 317.372 968.48 315.764C967.595 314.74 966.517 313.902 965.306 313.298C963.166 312.327 961.626 310.384 961.171 308.078C960.431 303.632 957.406 299.905 953.206 298.266C949.008 296.628 944.256 297.322 940.701 300.093C940.416 300.333 940.129 300.574 939.874 300.814C938.495 302.064 936.681 302.723 934.821 302.649C931.859 302.593 929.031 303.874 927.119 306.136C925.208 308.398 924.418 311.402 924.968 314.312C925.518 317.222 927.351 319.73 929.957 321.137C932.563 322.545 935.664 322.704 938.4 321.57L938.792 321.404C940.127 320.876 941.628 320.958 942.897 321.629C944.175 322.273 945.553 322.69 946.974 322.863C949.174 323.075 951.115 324.397 952.116 326.367C952.718 327.665 953.601 328.811 954.704 329.721C956.876 331.509 959.711 332.279 962.49 331.836C965.268 331.392 967.723 329.78 969.232 327.405L969.232 327.405Z" fill="#E5E5E5" fill-opacity="0.5"/>
<path d="M973.626 282.441C977.114 285.127 977.3 290.735 974.041 294.967C970.783 299.198 965.313 300.452 961.826 297.765C958.337 295.079 958.152 289.471 961.41 285.24C964.669 281.008 970.139 279.755 973.626 282.441Z" fill="#E5E5E5" fill-opacity="0.5"/>
<path d="M953.429 272.627C957.662 273.837 959.901 278.982 958.432 284.117C956.963 289.252 952.34 292.433 948.107 291.221C943.875 290.01 941.635 284.865 943.105 279.731C944.574 274.596 949.196 271.415 953.429 272.627Z" fill="#E5E5E5" fill-opacity="0.5"/>
<path d="M940.637 288.406C941.204 292.771 938.746 296.689 935.146 297.156C931.547 297.624 928.169 294.464 927.601 290.098C927.035 285.733 929.493 281.814 933.092 281.347C936.693 280.879 940.07 284.039 940.637 288.406Z" fill="#E5E5E5" fill-opacity="0.5"/>
<path d="M982.261 299.847C984.422 302.763 983.306 307.252 979.77 309.873C976.232 312.494 971.613 312.254 969.452 309.338C967.291 306.423 968.406 301.933 971.944 299.312C975.48 296.691 980.099 296.93 982.26 299.847" fill="#E5E5E5" fill-opacity="0.5"/>
<path d="M1324.73 226.275C1324.35 224.215 1323.31 222.331 1321.79 220.894C1320.26 219.459 1318.31 218.547 1316.23 218.289C1314.88 218.14 1313.52 218.262 1312.22 218.649C1309.99 219.386 1307.55 219.005 1305.65 217.627C1302.09 214.875 1297.34 214.199 1293.16 215.85C1288.98 217.501 1285.97 221.233 1285.25 225.673C1285.25 226.049 1285.15 226.41 1285.12 226.772C1284.98 228.628 1284.11 230.354 1282.69 231.569C1280.47 233.53 1279.25 236.389 1279.38 239.349C1279.51 242.31 1280.96 245.055 1283.34 246.821C1285.72 248.587 1288.77 249.182 1291.64 248.444C1294.51 247.705 1296.89 245.71 1298.13 243.015L1298.31 242.623C1298.92 241.326 1300.08 240.364 1301.46 239.991C1302.84 239.595 1304.14 238.964 1305.3 238.126C1307.06 236.787 1309.38 236.436 1311.45 237.194C1313.64 238.062 1316.06 238.116 1318.28 237.348C1320.51 236.579 1322.38 235.039 1323.56 233.008C1324.74 230.976 1325.16 228.586 1324.73 226.275L1324.73 226.275Z" fill="#FFECE7" fill-opacity="0.3"/>
<path d="M1308.76 200.24C1308.76 205.581 1305.19 209.911 1300.79 209.911C1296.38 209.911 1292.81 205.581 1292.81 200.24C1292.81 194.899 1296.38 190.569 1300.79 190.569C1305.19 190.569 1308.76 194.899 1308.76 200.24Z" fill="#FFECE7" fill-opacity="0.3"/>
<path d="M1289.76 201.164C1291.72 206.128 1290 211.469 1285.91 213.092C1281.82 214.714 1276.9 212.005 1274.94 207.04C1272.97 202.076 1274.69 196.736 1278.78 195.113C1282.87 193.49 1287.79 196.198 1289.76 201.164Z" fill="#FFECE7" fill-opacity="0.3"/>
<path d="M1278.26 215.412C1281.38 218.525 1281.82 223.129 1279.25 225.695C1276.69 228.262 1272.08 227.82 1268.97 224.707C1265.86 221.593 1265.41 216.99 1267.98 214.423C1270.55 211.855 1275.15 212.298 1278.26 215.412" fill="#FFECE7" fill-opacity="0.3"/>
<path d="M1318.23 199.101C1321.72 200.094 1323.58 204.331 1322.37 208.565C1321.17 212.801 1317.37 215.43 1313.87 214.437C1310.38 213.446 1308.53 209.208 1309.73 204.973C1310.93 200.739 1314.74 198.11 1318.23 199.101Z" fill="#FFECE7" fill-opacity="0.3"/>
<path d="M1265.23 190.405C1266.36 188.637 1266.9 186.555 1266.76 184.462C1266.63 182.369 1265.83 180.372 1264.48 178.764C1263.6 177.74 1262.52 176.902 1261.31 176.298C1259.17 175.327 1257.63 173.384 1257.17 171.078C1256.43 166.632 1253.41 162.905 1249.21 161.266C1245.01 159.628 1240.26 160.322 1236.7 163.093C1236.42 163.333 1236.13 163.574 1235.87 163.814C1234.49 165.064 1232.68 165.723 1230.82 165.649C1227.86 165.593 1225.03 166.874 1223.12 169.136C1221.21 171.398 1220.42 174.402 1220.97 177.312C1221.52 180.222 1223.35 182.73 1225.96 184.137C1228.56 185.545 1231.66 185.704 1234.4 184.57L1234.79 184.404C1236.13 183.876 1237.63 183.958 1238.9 184.629C1240.17 185.273 1241.55 185.69 1242.97 185.863C1245.17 186.075 1247.11 187.397 1248.12 189.367C1248.72 190.665 1249.6 191.811 1250.7 192.721C1252.88 194.509 1255.71 195.279 1258.49 194.836C1261.27 194.392 1263.72 192.78 1265.23 190.405L1265.23 190.405Z" fill="#FFECE7" fill-opacity="0.3"/>
<path d="M1269.63 145.441C1273.11 148.127 1273.3 153.735 1270.04 157.967C1266.78 162.198 1261.31 163.452 1257.83 160.765C1254.34 158.079 1254.15 152.471 1257.41 148.24C1260.67 144.008 1266.14 142.755 1269.63 145.441Z" fill="#FFECE7" fill-opacity="0.3"/>
<path d="M1249.43 135.627C1253.66 136.837 1255.9 141.982 1254.43 147.117C1252.96 152.252 1248.34 155.433 1244.11 154.221C1239.88 153.01 1237.64 147.865 1239.11 142.731C1240.57 137.596 1245.2 134.415 1249.43 135.627Z" fill="#FFECE7" fill-opacity="0.3"/>
<path d="M1236.64 151.406C1237.2 155.771 1234.75 159.689 1231.15 160.156C1227.55 160.624 1224.17 157.464 1223.6 153.098C1223.03 148.733 1225.49 144.814 1229.09 144.347C1232.69 143.879 1236.07 147.039 1236.64 151.406Z" fill="#FFECE7" fill-opacity="0.3"/>
<path d="M1278.26 162.847C1280.42 165.763 1279.31 170.252 1275.77 172.873C1272.23 175.494 1267.61 175.254 1265.45 172.338C1263.29 169.423 1264.41 164.933 1267.94 162.312C1271.48 159.691 1276.1 159.93 1278.26 162.847" fill="#FFECE7" fill-opacity="0.3"/>
<path d="M959.561 642.953C959.388 642.032 958.928 641.19 958.245 640.549C957.563 639.907 956.693 639.5 955.764 639.384C955.161 639.318 954.551 639.372 953.97 639.545C952.974 639.875 951.882 639.704 951.033 639.088C949.444 637.859 947.324 637.557 945.455 638.295C943.585 639.032 942.242 640.7 941.921 642.684C941.921 642.852 941.874 643.013 941.86 643.174C941.798 644.004 941.409 644.775 940.779 645.318C939.786 646.194 939.241 647.471 939.298 648.794C939.354 650.117 940.004 651.344 941.068 652.133C942.131 652.922 943.494 653.188 944.776 652.858C946.059 652.528 947.123 651.636 947.673 650.432L947.754 650.257C948.029 649.677 948.545 649.248 949.165 649.081C949.78 648.904 950.36 648.622 950.879 648.248C951.664 647.65 952.7 647.493 953.627 647.831C954.604 648.219 955.687 648.243 956.68 647.9C957.673 647.557 958.509 646.869 959.038 645.961C959.567 645.053 959.752 643.985 959.561 642.953L959.561 642.953Z" fill="#C4C4C4" fill-opacity="0.5"/>
<path d="M952.423 631.32C952.423 633.706 950.829 635.641 948.862 635.641C946.895 635.641 945.3 633.706 945.3 631.32C945.3 628.934 946.895 626.999 948.862 626.999C950.829 626.999 952.423 628.934 952.423 631.32Z" fill="#C4C4C4" fill-opacity="0.5"/>
<path d="M943.933 631.733C944.813 633.951 944.044 636.337 942.215 637.062C940.387 637.787 938.192 636.577 937.312 634.358C936.432 632.14 937.202 629.754 939.03 629.029C940.858 628.304 943.054 629.514 943.933 631.733Z" fill="#C4C4C4" fill-opacity="0.5"/>
<path d="M938.798 638.099C940.189 639.49 940.387 641.547 939.24 642.694C938.093 643.841 936.037 643.643 934.645 642.252C933.254 640.861 933.057 638.804 934.204 637.657C935.35 636.51 937.408 636.708 938.798 638.099" fill="#C4C4C4" fill-opacity="0.5"/>
<path d="M956.656 630.811C958.216 631.255 959.045 633.148 958.507 635.04C957.97 636.932 956.269 638.107 954.709 637.663C953.149 637.22 952.32 635.327 952.857 633.435C953.395 631.543 955.096 630.368 956.656 630.811Z" fill="#C4C4C4" fill-opacity="0.5"/>
<path d="M932.976 626.926C933.48 626.136 933.719 625.205 933.659 624.27C933.599 623.335 933.242 622.443 932.64 621.724C932.245 621.267 931.763 620.892 931.222 620.622C930.266 620.189 929.578 619.321 929.374 618.29C929.044 616.304 927.692 614.638 925.816 613.906C923.94 613.174 921.817 613.484 920.228 614.722C920.101 614.83 919.973 614.937 919.859 615.045C919.242 615.603 918.432 615.897 917.601 615.865C916.278 615.839 915.014 616.412 914.16 617.423C913.306 618.433 912.953 619.775 913.198 621.076C913.444 622.376 914.263 623.496 915.428 624.125C916.592 624.754 917.978 624.825 919.2 624.318L919.375 624.244C919.972 624.009 920.642 624.045 921.209 624.345C921.78 624.632 922.396 624.819 923.031 624.896C924.014 624.991 924.881 625.582 925.329 626.462C925.597 627.042 925.992 627.554 926.485 627.961C927.455 628.759 928.722 629.103 929.964 628.906C931.205 628.707 932.302 627.987 932.976 626.926L932.976 626.926Z" fill="#C4C4C4" fill-opacity="0.5"/>
<path d="M934.939 606.835C936.498 608.036 936.581 610.541 935.125 612.432C933.669 614.323 931.225 614.883 929.667 613.682C928.108 612.482 928.025 609.976 929.481 608.086C930.937 606.195 933.381 605.635 934.939 606.835Z" fill="#C4C4C4" fill-opacity="0.5"/>
<path d="M925.915 602.45C927.806 602.991 928.807 605.29 928.15 607.584C927.494 609.879 925.429 611.3 923.537 610.758C921.646 610.217 920.646 607.919 921.302 605.625C921.959 603.33 924.024 601.909 925.915 602.45Z" fill="#C4C4C4" fill-opacity="0.5"/>
<path d="M920.2 609.5C920.453 611.451 919.355 613.202 917.746 613.41C916.138 613.619 914.629 612.207 914.375 610.257C914.122 608.306 915.22 606.555 916.828 606.347C918.437 606.138 919.946 607.549 920.2 609.5Z" fill="#C4C4C4" fill-opacity="0.5"/>
<path d="M938.797 614.612C939.763 615.915 939.265 617.921 937.684 619.092C936.104 620.263 934.04 620.156 933.074 618.853C932.109 617.551 932.607 615.545 934.188 614.373C935.768 613.202 937.832 613.309 938.797 614.612" fill="#C4C4C4" fill-opacity="0.5"/>
<path d="M724.731 571.275C724.345 569.215 723.314 567.331 721.787 565.894C720.259 564.459 718.314 563.547 716.234 563.289C714.884 563.14 713.52 563.262 712.218 563.649C709.99 564.386 707.545 564.005 705.646 562.627C702.088 559.875 697.344 559.199 693.161 560.85C688.976 562.501 685.971 566.233 685.251 570.673C685.251 571.049 685.146 571.41 685.116 571.772C684.977 573.628 684.106 575.354 682.695 576.569C680.473 578.53 679.255 581.389 679.381 584.349C679.506 587.31 680.962 590.055 683.342 591.821C685.722 593.587 688.772 594.182 691.641 593.444C694.512 592.705 696.894 590.71 698.126 588.015L698.306 587.623C698.922 586.326 700.077 585.364 701.464 584.991C702.841 584.595 704.139 583.964 705.3 583.126C707.057 581.787 709.376 581.436 711.451 582.194C713.637 583.062 716.06 583.116 718.283 582.348C720.505 581.579 722.378 580.039 723.561 578.008C724.745 575.976 725.16 573.586 724.731 571.275L724.731 571.275Z" fill="#FFECE7" fill-opacity="0.3"/>
<path d="M708.757 545.24C708.757 550.581 705.188 554.911 700.786 554.911C696.383 554.911 692.814 550.581 692.814 545.24C692.814 539.899 696.383 535.569 700.786 535.569C705.188 535.569 708.757 539.899 708.757 545.24Z" fill="#FFECE7" fill-opacity="0.3"/>
<path d="M689.755 546.164C691.724 551.128 690.003 556.469 685.91 558.092C681.818 559.714 676.905 557.005 674.936 552.04C672.968 547.076 674.689 541.736 678.781 540.113C682.873 538.49 687.787 541.198 689.755 546.164Z" fill="#FFECE7" fill-opacity="0.3"/>
<path d="M678.263 560.412C681.376 563.525 681.818 568.129 679.252 570.695C676.685 573.262 672.082 572.82 668.968 569.707C665.855 566.593 665.413 561.99 667.98 559.423C670.546 556.855 675.15 557.298 678.263 560.412" fill="#FFECE7" fill-opacity="0.3"/>
<path d="M718.229 544.101C721.721 545.094 723.577 549.331 722.373 553.565C721.17 557.801 717.365 560.43 713.872 559.437C710.381 558.446 708.526 554.208 709.728 549.973C710.932 545.739 714.738 543.11 718.229 544.101Z" fill="#FFECE7" fill-opacity="0.3"/>
<path d="M665.232 535.405C666.36 533.637 666.896 531.555 666.761 529.462C666.625 527.369 665.827 525.372 664.48 523.764C663.595 522.74 662.517 521.902 661.306 521.298C659.166 520.327 657.626 518.384 657.171 516.078C656.431 511.632 653.406 507.905 649.206 506.266C645.008 504.628 640.256 505.322 636.701 508.093C636.416 508.333 636.129 508.574 635.874 508.814C634.495 510.064 632.681 510.723 630.821 510.649C627.859 510.593 625.031 511.874 623.119 514.136C621.208 516.398 620.418 519.402 620.968 522.312C621.518 525.222 623.351 527.73 625.957 529.137C628.563 530.545 631.664 530.704 634.4 529.57L634.792 529.404C636.127 528.876 637.628 528.958 638.897 529.629C640.175 530.273 641.553 530.69 642.974 530.863C645.174 531.075 647.115 532.397 648.116 534.367C648.718 535.665 649.601 536.811 650.704 537.721C652.876 539.509 655.711 540.279 658.49 539.836C661.268 539.392 663.723 537.78 665.232 535.405L665.232 535.405Z" fill="#FFECE7" fill-opacity="0.3"/>
<path d="M669.626 490.441C673.114 493.127 673.3 498.735 670.041 502.967C666.783 507.198 661.313 508.452 657.826 505.765C654.337 503.079 654.152 497.471 657.41 493.24C660.669 489.008 666.139 487.755 669.626 490.441Z" fill="#FFECE7" fill-opacity="0.3"/>
<path d="M649.429 480.627C653.662 481.837 655.901 486.982 654.432 492.117C652.963 497.252 648.34 500.433 644.107 499.221C639.875 498.01 637.635 492.865 639.105 487.731C640.574 482.596 645.196 479.415 649.429 480.627Z" fill="#FFECE7" fill-opacity="0.3"/>
<path d="M636.637 496.406C637.204 500.771 634.746 504.689 631.146 505.156C627.547 505.624 624.169 502.464 623.601 498.098C623.035 493.733 625.493 489.814 629.092 489.347C632.693 488.879 636.07 492.039 636.637 496.406Z" fill="#FFECE7" fill-opacity="0.3"/>
<path d="M678.26 507.847C680.422 510.763 679.306 515.252 675.77 517.873C672.232 520.494 667.613 520.254 665.452 517.338C663.291 514.423 664.406 509.933 667.944 507.312C671.48 504.691 676.099 504.93 678.26 507.847" fill="#FFECE7" fill-opacity="0.3"/>
<path d="M454.658 560.86C454.496 559.994 454.063 559.203 453.421 558.599C452.779 557.996 451.962 557.613 451.088 557.504C450.521 557.442 449.947 557.493 449.4 557.656C448.464 557.965 447.436 557.805 446.638 557.226C445.144 556.07 443.15 555.786 441.392 556.48C439.633 557.173 438.371 558.742 438.068 560.607C438.068 560.765 438.024 560.917 438.012 561.069C437.953 561.849 437.587 562.574 436.994 563.085C436.06 563.909 435.548 565.11 435.601 566.354C435.654 567.598 436.266 568.752 437.266 569.494C438.266 570.236 439.548 570.486 440.754 570.176C441.96 569.865 442.961 569.027 443.479 567.894L443.554 567.73C443.813 567.185 444.298 566.78 444.881 566.624C445.46 566.457 446.005 566.192 446.493 565.84C447.231 565.278 448.206 565.13 449.078 565.449C449.996 565.813 451.015 565.836 451.949 565.513C452.883 565.19 453.669 564.543 454.167 563.69C454.664 562.836 454.839 561.831 454.658 560.86L454.658 560.86Z" fill="#C4C4C4" fill-opacity="0.4"/>
<path d="M447.946 549.92C447.946 552.164 446.446 553.984 444.596 553.984C442.746 553.984 441.246 552.164 441.246 549.92C441.246 547.676 442.746 545.856 444.596 545.856C446.446 545.856 447.946 547.676 447.946 549.92Z" fill="#C4C4C4" fill-opacity="0.4"/>
<path d="M439.961 550.308C440.788 552.394 440.065 554.639 438.345 555.321C436.626 556.002 434.561 554.864 433.734 552.777C432.907 550.691 433.63 548.447 435.349 547.765C437.069 547.083 439.134 548.222 439.961 550.308Z" fill="#C4C4C4" fill-opacity="0.4"/>
<path d="M435.132 556.295C436.44 557.603 436.626 559.538 435.548 560.617C434.469 561.695 432.534 561.509 431.226 560.201C429.918 558.893 429.732 556.958 430.811 555.88C431.889 554.801 433.824 554.987 435.132 556.295" fill="#C4C4C4" fill-opacity="0.4"/>
<path d="M451.926 549.442C453.393 549.859 454.173 551.639 453.668 553.418C453.162 555.198 451.563 556.303 450.095 555.886C448.628 555.469 447.849 553.689 448.354 551.909C448.86 550.13 450.459 549.025 451.926 549.442Z" fill="#C4C4C4" fill-opacity="0.4"/>
<path d="M429.656 545.787C430.13 545.044 430.355 544.169 430.298 543.29C430.241 542.41 429.906 541.571 429.34 540.896C428.968 540.465 428.515 540.113 428.006 539.859C427.107 539.451 426.46 538.635 426.269 537.666C425.958 535.798 424.686 534.231 422.922 533.543C421.157 532.854 419.161 533.146 417.667 534.31C417.547 534.411 417.427 534.513 417.32 534.613C416.74 535.139 415.978 535.415 415.196 535.385C413.952 535.361 412.763 535.899 411.96 536.85C411.156 537.8 410.824 539.062 411.056 540.285C411.287 541.508 412.057 542.562 413.152 543.153C414.247 543.745 415.55 543.812 416.7 543.335L416.865 543.265C417.426 543.044 418.056 543.078 418.59 543.36C419.127 543.63 419.706 543.806 420.303 543.879C421.227 543.968 422.043 544.523 422.464 545.351C422.716 545.896 423.088 546.378 423.551 546.76C424.464 547.512 425.655 547.835 426.823 547.649C427.99 547.463 429.022 546.785 429.656 545.787L429.656 545.787Z" fill="#C4C4C4" fill-opacity="0.4"/>
<path d="M431.502 526.893C432.968 528.022 433.046 530.378 431.677 532.156C430.308 533.934 428.009 534.461 426.544 533.332C425.078 532.204 425 529.847 426.369 528.069C427.738 526.29 430.037 525.764 431.502 526.893Z" fill="#C4C4C4" fill-opacity="0.4"/>
<path d="M423.016 522.769C424.794 523.277 425.735 525.439 425.118 527.597C424.5 529.755 422.558 531.091 420.779 530.582C419.001 530.073 418.06 527.912 418.677 525.754C419.294 523.596 421.237 522.259 423.016 522.769Z" fill="#C4C4C4" fill-opacity="0.4"/>
<path d="M417.64 529.399C417.878 531.234 416.845 532.88 415.333 533.076C413.82 533.273 412.401 531.945 412.162 530.11C411.924 528.276 412.957 526.629 414.47 526.433C415.983 526.237 417.402 527.564 417.64 529.399Z" fill="#C4C4C4" fill-opacity="0.4"/>
<path d="M435.131 534.207C436.039 535.432 435.57 537.319 434.084 538.42C432.598 539.521 430.657 539.421 429.748 538.195C428.84 536.97 429.309 535.084 430.795 533.982C432.282 532.881 434.223 532.981 435.131 534.207" fill="#C4C4C4" fill-opacity="0.4"/>
<path d="M721.658 134.86C721.496 133.994 721.063 133.203 720.421 132.599C719.779 131.996 718.962 131.613 718.087 131.504C717.521 131.442 716.947 131.493 716.4 131.656C715.464 131.965 714.436 131.805 713.638 131.226C712.144 130.07 710.15 129.786 708.392 130.48C706.633 131.173 705.371 132.742 705.068 134.607C705.068 134.765 705.024 134.917 705.012 135.069C704.953 135.849 704.587 136.574 703.994 137.085C703.06 137.909 702.548 139.11 702.601 140.354C702.654 141.598 703.266 142.752 704.266 143.494C705.266 144.236 706.548 144.486 707.754 144.176C708.96 143.865 709.961 143.027 710.478 141.894L710.554 141.73C710.813 141.185 711.298 140.78 711.881 140.624C712.46 140.457 713.005 140.192 713.493 139.84C714.231 139.278 715.206 139.13 716.078 139.449C716.996 139.813 718.015 139.836 718.949 139.513C719.883 139.19 720.669 138.543 721.167 137.69C721.664 136.836 721.839 135.831 721.658 134.86L721.658 134.86Z" fill="#FFECE7" fill-opacity="0.6"/>
<path d="M714.946 123.92C714.946 126.164 713.446 127.984 711.596 127.984C709.746 127.984 708.246 126.164 708.246 123.92C708.246 121.676 709.746 119.856 711.596 119.856C713.446 119.856 714.946 121.676 714.946 123.92Z" fill="#FFECE7" fill-opacity="0.6"/>
<path d="M706.961 124.308C707.788 126.394 707.065 128.639 705.345 129.321C703.626 130.002 701.561 128.864 700.734 126.777C699.907 124.691 700.63 122.447 702.349 121.765C704.069 121.083 706.134 122.222 706.961 124.308Z" fill="#FFECE7" fill-opacity="0.6"/>
<path d="M702.132 130.295C703.44 131.603 703.626 133.538 702.548 134.617C701.469 135.695 699.534 135.509 698.226 134.201C696.918 132.893 696.732 130.958 697.811 129.88C698.889 128.801 700.824 128.987 702.132 130.295" fill="#FFECE7" fill-opacity="0.6"/>
<path d="M718.926 123.442C720.393 123.859 721.173 125.639 720.667 127.418C720.162 129.198 718.563 130.303 717.095 129.886C715.628 129.469 714.849 127.689 715.354 125.909C715.86 124.13 717.459 123.025 718.926 123.442Z" fill="#FFECE7" fill-opacity="0.6"/>
<path d="M696.656 119.787C697.13 119.044 697.355 118.169 697.298 117.29C697.241 116.41 696.906 115.571 696.34 114.896C695.968 114.465 695.515 114.113 695.006 113.859C694.107 113.451 693.46 112.635 693.269 111.666C692.958 109.798 691.686 108.231 689.922 107.543C688.157 106.854 686.161 107.146 684.667 108.31C684.547 108.411 684.427 108.513 684.32 108.613C683.74 109.139 682.978 109.415 682.196 109.385C680.952 109.361 679.763 109.899 678.96 110.85C678.156 111.8 677.824 113.062 678.056 114.285C678.287 115.508 679.057 116.562 680.152 117.153C681.247 117.745 682.55 117.812 683.7 117.335L683.865 117.265C684.426 117.044 685.056 117.078 685.59 117.36C686.127 117.63 686.706 117.806 687.303 117.879C688.227 117.968 689.043 118.523 689.464 119.351C689.716 119.896 690.088 120.378 690.551 120.76C691.464 121.512 692.655 121.835 693.823 121.649C694.99 121.463 696.022 120.785 696.656 119.787L696.656 119.787Z" fill="#FFECE7" fill-opacity="0.6"/>
<path d="M698.502 100.893C699.968 102.022 700.046 104.378 698.677 106.156C697.308 107.934 695.009 108.461 693.544 107.332C692.078 106.204 692 103.847 693.369 102.069C694.738 100.29 697.037 99.764 698.502 100.893Z" fill="#FFECE7" fill-opacity="0.6"/>
<path d="M690.016 96.7686C691.794 97.2773 692.735 99.4393 692.117 101.597C691.5 103.755 689.558 105.091 687.779 104.582C686.001 104.073 685.06 101.912 685.677 99.754C686.294 97.5961 688.237 96.2594 690.016 96.7686Z" fill="#FFECE7" fill-opacity="0.6"/>
<path d="M684.64 103.399C684.878 105.234 683.845 106.88 682.333 107.076C680.82 107.273 679.401 105.945 679.162 104.11C678.924 102.276 679.957 100.629 681.47 100.433C682.983 100.237 684.402 101.564 684.64 103.399Z" fill="#FFECE7" fill-opacity="0.6"/>
<path d="M702.131 108.207C703.039 109.432 702.57 111.319 701.084 112.42C699.598 113.521 697.657 113.421 696.748 112.195C695.84 110.97 696.309 109.084 697.795 107.982C699.282 106.881 701.223 106.981 702.131 108.207" fill="#FFECE7" fill-opacity="0.6"/>
<path d="M282.731 829.275C282.345 827.215 281.314 825.331 279.787 823.894C278.259 822.459 276.314 821.547 274.234 821.289C272.884 821.14 271.52 821.262 270.218 821.649C267.99 822.386 265.545 822.005 263.646 820.627C260.088 817.875 255.344 817.199 251.161 818.85C246.976 820.501 243.971 824.233 243.251 828.673C243.251 829.049 243.147 829.41 243.116 829.772C242.977 831.628 242.106 833.354 240.695 834.569C238.473 836.53 237.255 839.389 237.381 842.349C237.506 845.31 238.962 848.055 241.342 849.821C243.722 851.587 246.772 852.182 249.641 851.444C252.512 850.705 254.894 848.71 256.126 846.015L256.307 845.623C256.922 844.326 258.077 843.364 259.464 842.991C260.841 842.595 262.139 841.964 263.3 841.126C265.057 839.787 267.376 839.436 269.451 840.194C271.637 841.062 274.06 841.116 276.283 840.348C278.505 839.579 280.378 838.039 281.561 836.008C282.745 833.976 283.16 831.586 282.731 829.275L282.731 829.275Z" fill="#FFECE7" fill-opacity="0.3"/>
<path d="M266.757 803.24C266.757 808.581 263.188 812.911 258.786 812.911C254.383 812.911 250.814 808.581 250.814 803.24C250.814 797.899 254.383 793.569 258.786 793.569C263.188 793.569 266.757 797.899 266.757 803.24Z" fill="#FFECE7" fill-opacity="0.3"/>
<path d="M247.755 804.164C249.724 809.128 248.003 814.469 243.91 816.092C239.818 817.714 234.905 815.005 232.936 810.04C230.968 805.076 232.689 799.736 236.781 798.113C240.873 796.49 245.787 799.198 247.755 804.164Z" fill="#FFECE7" fill-opacity="0.3"/>
<path d="M236.263 818.412C239.376 821.525 239.818 826.129 237.252 828.695C234.685 831.262 230.082 830.82 226.968 827.707C223.855 824.593 223.413 819.99 225.98 817.423C228.546 814.855 233.15 815.298 236.263 818.412" fill="#FFECE7" fill-opacity="0.3"/>
<path d="M276.229 802.101C279.721 803.094 281.577 807.331 280.373 811.565C279.17 815.801 275.365 818.43 271.872 817.437C268.381 816.446 266.526 812.208 267.728 807.973C268.932 803.739 272.738 801.11 276.229 802.101Z" fill="#FFECE7" fill-opacity="0.3"/>
<path d="M223.232 793.405C224.36 791.637 224.896 789.555 224.761 787.462C224.625 785.369 223.827 783.372 222.48 781.764C221.595 780.74 220.517 779.902 219.306 779.298C217.166 778.327 215.626 776.384 215.171 774.078C214.431 769.632 211.406 765.905 207.206 764.266C203.008 762.628 198.256 763.322 194.701 766.093C194.416 766.333 194.129 766.574 193.874 766.814C192.495 768.064 190.681 768.723 188.821 768.649C185.859 768.593 183.031 769.874 181.119 772.136C179.208 774.398 178.418 777.402 178.968 780.312C179.518 783.222 181.351 785.73 183.957 787.137C186.563 788.545 189.664 788.704 192.4 787.57L192.792 787.404C194.127 786.876 195.628 786.958 196.897 787.629C198.175 788.273 199.553 788.69 200.974 788.863C203.174 789.075 205.115 790.397 206.116 792.367C206.718 793.665 207.601 794.811 208.704 795.721C210.876 797.509 213.711 798.279 216.49 797.836C219.268 797.392 221.723 795.78 223.232 793.405L223.232 793.405Z" fill="#FFECE7" fill-opacity="0.3"/>
<path d="M227.626 748.441C231.114 751.127 231.3 756.735 228.041 760.967C224.783 765.198 219.313 766.452 215.826 763.765C212.337 761.079 212.152 755.471 215.41 751.24C218.669 747.008 224.139 745.755 227.626 748.441Z" fill="#FFECE7" fill-opacity="0.3"/>
<path d="M207.429 738.627C211.662 739.837 213.901 744.982 212.432 750.117C210.963 755.252 206.34 758.433 202.107 757.221C197.875 756.01 195.635 750.865 197.105 745.731C198.574 740.596 203.196 737.415 207.429 738.627Z" fill="#FFECE7" fill-opacity="0.3"/>
<path d="M194.637 754.406C195.204 758.771 192.746 762.689 189.146 763.156C185.547 763.624 182.169 760.464 181.601 756.098C181.035 751.733 183.493 747.814 187.092 747.347C190.693 746.879 194.07 750.039 194.637 754.406Z" fill="#FFECE7" fill-opacity="0.3"/>
<path d="M236.261 765.847C238.422 768.763 237.306 773.252 233.77 775.873C230.232 778.494 225.613 778.254 223.452 775.338C221.291 772.423 222.406 767.933 225.944 765.312C229.48 762.691 234.099 762.93 236.26 765.847" fill="#FFECE7" fill-opacity="0.3"/>
<path d="M793.731 939.275C793.345 937.215 792.314 935.331 790.787 933.894C789.259 932.459 787.314 931.547 785.234 931.289C783.884 931.14 782.52 931.262 781.218 931.649C778.99 932.386 776.545 932.005 774.646 930.627C771.088 927.875 766.344 927.199 762.161 928.85C757.976 930.501 754.971 934.233 754.251 938.673C754.251 939.049 754.146 939.41 754.116 939.772C753.977 941.628 753.106 943.354 751.695 944.569C749.473 946.53 748.255 949.389 748.381 952.349C748.506 955.31 749.962 958.055 752.342 959.821C754.722 961.587 757.772 962.182 760.641 961.444C763.512 960.705 765.894 958.71 767.126 956.015L767.306 955.623C767.922 954.326 769.077 953.364 770.464 952.991C771.841 952.595 773.139 951.964 774.3 951.126C776.057 949.787 778.376 949.436 780.451 950.194C782.637 951.062 785.06 951.116 787.283 950.348C789.505 949.579 791.378 948.039 792.561 946.008C793.745 943.976 794.16 941.586 793.731 939.275L793.731 939.275Z" fill="#D4F1F9" fill-opacity="0.4"/>
<path d="M777.757 913.24C777.757 918.581 774.188 922.911 769.786 922.911C765.383 922.911 761.814 918.581 761.814 913.24C761.814 907.899 765.383 903.569 769.786 903.569C774.188 903.569 777.757 907.899 777.757 913.24Z" fill="#D4F1F9" fill-opacity="0.4"/>
<path d="M758.755 914.164C760.724 919.128 759.003 924.469 754.91 926.092C750.818 927.714 745.905 925.005 743.936 920.04C741.968 915.076 743.689 909.736 747.781 908.113C751.873 906.49 756.787 909.198 758.755 914.164Z" fill="#D4F1F9" fill-opacity="0.4"/>
<path d="M747.263 928.412C750.376 931.525 750.818 936.129 748.252 938.695C745.685 941.262 741.082 940.82 737.968 937.707C734.855 934.593 734.413 929.99 736.98 927.423C739.546 924.855 744.15 925.298 747.263 928.412" fill="#D4F1F9" fill-opacity="0.4"/>
<path d="M787.229 912.101C790.721 913.094 792.577 917.331 791.373 921.565C790.17 925.801 786.365 928.43 782.872 927.437C779.381 926.446 777.526 922.208 778.728 917.973C779.932 913.739 783.738 911.11 787.229 912.101Z" fill="#D4F1F9" fill-opacity="0.4"/>
<path d="M734.232 903.405C735.36 901.637 735.896 899.555 735.761 897.462C735.625 895.369 734.827 893.372 733.48 891.764C732.595 890.74 731.517 889.902 730.306 889.298C728.166 888.327 726.626 886.384 726.171 884.078C725.431 879.632 722.406 875.905 718.206 874.266C714.008 872.628 709.256 873.322 705.701 876.093C705.416 876.333 705.129 876.574 704.874 876.814C703.495 878.064 701.681 878.723 699.821 878.649C696.859 878.593 694.031 879.874 692.119 882.136C690.208 884.398 689.418 887.402 689.968 890.312C690.518 893.222 692.351 895.73 694.957 897.137C697.563 898.545 700.664 898.704 703.4 897.57L703.792 897.404C705.127 896.876 706.628 896.958 707.897 897.629C709.175 898.273 710.553 898.69 711.974 898.863C714.174 899.075 716.115 900.397 717.116 902.367C717.718 903.665 718.601 904.811 719.704 905.721C721.876 907.509 724.711 908.279 727.49 907.836C730.268 907.392 732.723 905.78 734.232 903.405L734.232 903.405Z" fill="#D4F1F9" fill-opacity="0.4"/>
<path d="M738.626 858.441C742.114 861.127 742.3 866.735 739.041 870.967C735.783 875.198 730.313 876.452 726.826 873.765C723.337 871.079 723.152 865.471 726.41 861.24C729.669 857.008 735.139 855.755 738.626 858.441Z" fill="#D4F1F9" fill-opacity="0.4"/>
<path d="M718.429 848.627C722.662 849.837 724.901 854.982 723.431 860.117C721.963 865.252 717.34 868.433 713.107 867.221C708.875 866.01 706.635 860.865 708.105 855.731C709.574 850.596 714.196 847.415 718.429 848.627Z" fill="#D4F1F9" fill-opacity="0.4"/>
<path d="M705.637 864.406C706.204 868.771 703.746 872.689 700.146 873.156C696.547 873.624 693.169 870.464 692.601 866.098C692.035 861.733 694.493 857.814 698.092 857.347C701.693 856.879 705.07 860.039 705.637 864.406Z" fill="#D4F1F9" fill-opacity="0.4"/>
<path d="M747.26 875.847C749.422 878.763 748.306 883.252 744.77 885.873C741.232 888.494 736.613 888.254 734.452 885.338C732.291 882.423 733.406 877.933 736.944 875.312C740.48 872.691 745.099 872.93 747.26 875.847" fill="#D4F1F9" fill-opacity="0.4"/>
</svg>
